<svg  viewBox="0 0 211 46" fill="none" xmlns="http://www.w3.org/2000/svg">
<path d="M27.4755 14.7874C26.6949 13.9915 25.7796 13.367 24.7296 12.917C23.6796 12.467 22.5378 12.2435 21.3071 12.2435C20.0765 12.2435 18.9347 12.467 17.8847 12.917C16.8347 13.367 15.9194 13.9915 15.1388 14.7874C14.3582 15.5833 13.749 16.5201 13.3143 17.5945C12.8796 18.669 12.6622 19.8292 12.6622 21.0752C12.6622 22.3211 12.8796 23.4874 13.3143 24.568C13.749 25.6486 14.3551 26.5915 15.1388 27.3966C15.9194 28.2017 16.8347 28.8292 17.8847 29.2792C18.9347 29.7292 20.0765 29.9527 21.3071 29.9527C22.5378 29.9527 23.6796 29.7292 24.7296 29.2792C25.7796 28.8292 26.6949 28.2017 27.4755 27.3966C28.2561 26.5915 28.8653 25.6486 29.2969 24.568C29.7316 23.4874 29.949 22.3241 29.949 21.0752C29.949 19.8292 29.7316 18.669 29.2969 17.5945C28.8622 16.5201 28.2561 15.5864 27.4755 14.7874ZM26.8357 23.619C26.5602 24.415 26.1561 25.116 25.6296 25.7129C25.1 26.3129 24.4725 26.7782 23.7469 27.1088C23.0214 27.4394 22.2071 27.6047 21.3071 27.6047C20.4071 27.6047 19.5959 27.4394 18.8673 27.1088C18.1418 26.7782 17.5143 26.3129 16.9847 25.7129C16.4551 25.1129 16.0541 24.415 15.7786 23.619C15.5031 22.8231 15.3653 21.9721 15.3653 21.0752C15.3653 20.1752 15.5031 19.3303 15.7786 18.5405C16.0541 17.7507 16.4582 17.0619 16.9847 16.468C17.5143 15.8772 18.1418 15.415 18.8673 15.0843C19.5929 14.7537 20.4071 14.5884 21.3071 14.5884C22.2071 14.5884 23.0184 14.7537 23.7469 15.0843C24.4725 15.415 25.1 15.8772 25.6296 16.468C26.1592 17.0588 26.5602 17.7507 26.8357 18.5405C27.1112 19.3303 27.249 20.1752 27.249 21.0752C27.249 21.9752 27.1112 22.8231 26.8357 23.619Z" fill="black"/>
<path d="M41.2541 17.6527C40.4245 17.0925 39.451 16.8109 38.3306 16.8109C37.4459 16.8109 36.6347 17.0313 35.8908 17.4752C35.15 17.916 34.5561 18.5405 34.1153 19.3456V17.0496H31.8898V34.168H34.2806V27.467C34.7367 28.2231 35.3153 28.8078 36.0102 29.218C36.7051 29.6282 37.4765 29.8333 38.3306 29.8333C39.451 29.8333 40.4276 29.5548 41.2541 28.9915C42.0837 28.4313 42.7265 27.6629 43.1827 26.6833C43.6388 25.7037 43.8684 24.5833 43.8684 23.3221C43.8684 22.0609 43.6388 20.9374 43.1827 19.9609C42.7265 18.9843 42.0837 18.2129 41.2541 17.6527ZM40.3786 26.567C39.7082 27.3231 38.8602 27.7027 37.8316 27.7027C37.1673 27.7027 36.5673 27.5282 36.0316 27.1823C35.4959 26.8364 35.0673 26.3343 34.752 25.6792C34.4367 25.0241 34.2775 24.2405 34.2775 23.3221C34.2775 22.3762 34.4337 21.5772 34.752 20.9313C35.0673 20.2854 35.4929 19.7864 36.0316 19.4405C36.5673 19.0945 37.1673 18.9201 37.8316 18.9201C38.8571 18.9201 39.7051 19.3027 40.3786 20.068C41.049 20.8333 41.3857 21.9201 41.3857 23.3221C41.3827 24.7303 41.049 25.8109 40.3786 26.567Z" fill="black"/>
<path d="M55.8378 18.8374C55.3082 18.1976 54.6684 17.7017 53.9184 17.3466C53.1684 16.9915 52.3204 16.8139 51.3745 16.8139C50.2235 16.8139 49.1949 17.0956 48.298 17.6558C47.398 18.216 46.6878 18.9782 46.1673 19.9394C45.6469 20.9037 45.3867 22.0088 45.3867 23.2547C45.3867 24.565 45.6378 25.716 46.1429 26.7109C46.648 27.7058 47.3551 28.4741 48.2612 29.019C49.1704 29.5639 50.2296 29.8364 51.4449 29.8364C52.9296 29.8364 54.1786 29.4384 55.198 28.6394C56.2173 27.8435 56.8755 26.7507 57.1755 25.3609H54.8092C54.6194 26.1813 54.2276 26.8211 53.6367 27.2772C53.0459 27.7364 52.299 27.9629 51.399 27.9629C50.6429 27.9629 49.9939 27.7731 49.4582 27.3935C48.9224 27.0139 48.5122 26.4752 48.2276 25.7711C48.0102 25.2323 47.8786 24.6139 47.8265 23.9129H57.1786C57.2888 22.8874 57.2245 21.9445 56.9888 21.0843C56.75 20.2272 56.3673 19.4772 55.8378 18.8374ZM47.8541 22.3303C47.9184 21.7425 48.0439 21.2129 48.2367 20.7568C48.5276 20.0711 48.9378 19.5415 49.4674 19.1711C49.9969 18.8007 50.6153 18.6139 51.3255 18.6139C52.3051 18.6139 53.0888 18.9415 53.6827 19.5966C54.2765 20.2517 54.5949 21.1639 54.6408 22.3303H47.8541Z" fill="black"/>
<path d="M87.2459 17.6527C86.4163 17.0925 85.4429 16.8109 84.3224 16.8109C83.4378 16.8109 82.6265 17.0313 81.8857 17.4752C81.1449 17.916 80.551 18.5405 80.1102 19.3456V17.0496H77.8847V34.168H80.2755V27.467C80.7316 28.2231 81.3102 28.8078 82.0051 29.218C82.7 29.6282 83.4714 29.8333 84.3255 29.8333C85.4459 29.8333 86.4225 29.5548 87.249 28.9915C88.0786 28.4313 88.7214 27.6629 89.1776 26.6833C89.6337 25.7037 89.8633 24.5833 89.8633 23.3221C89.8633 22.0609 89.6337 20.9374 89.1776 19.9609C88.7184 18.9843 88.0724 18.2129 87.2459 17.6527ZM86.3704 26.567C85.7 27.3231 84.852 27.7027 83.8235 27.7027C83.1592 27.7027 82.5592 27.5282 82.0235 27.1823C81.4878 26.8364 81.0592 26.3343 80.7439 25.6792C80.4286 25.0241 80.2694 24.2405 80.2694 23.3221C80.2694 22.3762 80.4255 21.5772 80.7439 20.9313C81.0592 20.2854 81.4847 19.7864 82.0235 19.4405C82.5592 19.0945 83.1592 18.9201 83.8235 18.9201C84.849 18.9201 85.6969 19.3027 86.3704 20.068C87.0408 20.8333 87.3775 21.9201 87.3775 23.3221C87.3745 24.7303 87.0408 25.8109 86.3704 26.567Z" fill="black"/>
<path d="M101.949 18.6721C101.404 18.0813 100.758 17.6221 100.008 17.2976C99.2582 16.9731 98.4347 16.8109 97.5347 16.8109C96.65 16.8109 95.8327 16.9731 95.0857 17.2976C94.3357 17.6221 93.6837 18.0782 93.1327 18.6721C92.5786 19.2629 92.15 19.9548 91.8408 20.7445C91.5316 21.5343 91.3786 22.3945 91.3786 23.3252C91.3786 24.2558 91.5316 25.116 91.8408 25.9058C92.15 26.6956 92.5786 27.3843 93.1327 27.9782C93.6837 28.569 94.3357 29.0282 95.0857 29.3527C95.8357 29.6772 96.6531 29.8394 97.5347 29.8394C98.4347 29.8394 99.2582 29.6772 100.008 29.3527C100.758 29.0282 101.404 28.5721 101.949 27.9782C102.494 27.3874 102.919 26.6956 103.229 25.9058C103.538 25.116 103.691 24.2558 103.691 23.3252C103.691 22.3945 103.538 21.5343 103.229 20.7445C102.919 19.9548 102.494 19.2629 101.949 18.6721ZM100.74 25.667C100.415 26.3313 99.9745 26.8394 99.4143 27.1945C98.8541 27.5497 98.2265 27.7272 97.5316 27.7272C96.852 27.7272 96.2337 27.5497 95.6735 27.1945C95.1133 26.8394 94.6725 26.3313 94.348 25.667C94.0235 25.0027 93.8612 24.2221 93.8612 23.3221C93.8612 22.4068 94.0235 21.6201 94.348 20.965C94.6725 20.3099 95.1133 19.8078 95.6735 19.4619C96.2337 19.116 96.852 18.9415 97.5316 18.9415C98.2265 18.9415 98.8541 19.116 99.4143 19.4619C99.9745 19.8078 100.415 20.3099 100.74 20.965C101.064 21.6201 101.223 22.4068 101.223 23.3221C101.227 24.2252 101.064 25.0058 100.74 25.667Z" fill="black"/>
<path d="M108.007 12.5986H105.592V29.5976H108.007V12.5986Z" fill="black"/>
<path d="M113.45 17.0496H111.059V29.5976H113.45V17.0496Z" fill="black"/>
<path d="M113.144 12.4333L111.059 15.7945H113.45L115.535 12.4333H113.144Z" fill="black"/>
<path d="M127.348 17.0496H124.957V29.5976H127.348V17.0496Z" fill="black"/>
<path d="M133.651 19.4772C134.156 19.1068 134.756 18.9201 135.451 18.9201C136.336 18.9201 137.07 19.2048 137.652 19.7711C138.237 20.3405 138.592 21.1303 138.717 22.1374H141.228C141.087 21.0476 140.75 20.1047 140.22 19.3088C139.691 18.5129 139.02 17.8976 138.209 17.4629C137.395 17.0282 136.47 16.8109 135.427 16.8109C134.306 16.8109 133.305 17.0925 132.42 17.6527C131.536 18.2129 130.841 18.9813 130.336 19.9609C129.831 20.9405 129.577 22.0609 129.577 23.3221C129.577 24.6017 129.824 25.7343 130.323 26.7201C130.819 27.7058 131.508 28.4772 132.384 29.0282C133.259 29.5823 134.272 29.8578 135.427 29.8578C136.483 29.8578 137.422 29.6405 138.243 29.2058C139.063 28.7711 139.734 28.1558 140.254 27.3599C140.774 26.5639 141.099 25.6119 141.224 24.5068H138.739C138.598 25.517 138.237 26.3068 137.661 26.8731C137.086 27.4425 136.348 27.7241 135.448 27.7241C134.753 27.7241 134.153 27.5435 133.648 27.1792C133.143 26.815 132.748 26.3037 132.463 25.6394C132.179 24.9752 132.038 24.2037 132.038 23.319C132.038 22.419 132.179 21.6445 132.463 20.9986C132.751 20.3558 133.146 19.8476 133.651 19.4772Z" fill="black"/>
<path d="M152.38 17.0496V19.2507C151.939 18.4609 151.372 17.8578 150.687 17.4384C150.001 17.019 149.199 16.8109 148.284 16.8109C147.133 16.8109 146.132 17.0864 145.29 17.6405C144.445 18.1945 143.79 18.9629 143.324 19.9486C142.859 20.9343 142.627 22.0609 142.627 23.3221C142.627 24.568 142.856 25.6854 143.312 26.6711C143.771 27.6568 144.417 28.4313 145.253 28.9915C146.089 29.5517 147.068 29.8333 148.189 29.8333C149.073 29.8333 149.882 29.616 150.616 29.1813C151.351 28.7466 151.939 28.1343 152.38 27.3476V29.5976H154.605V17.0496H152.38ZM151.752 25.6456C151.443 26.3099 151.027 26.818 150.497 27.1731C149.967 27.5282 149.358 27.7058 148.663 27.7058C147.622 27.7058 146.768 27.3262 146.107 26.5701C145.443 25.8109 145.112 24.7303 145.112 23.3252C145.112 21.9048 145.443 20.815 146.107 20.0588C146.771 19.2996 147.622 18.9231 148.663 18.9231C149.328 18.9231 149.928 19.0915 150.463 19.4313C150.999 19.7711 151.424 20.2639 151.743 20.9099C152.058 21.5558 152.217 22.3456 152.217 23.2762C152.214 24.1915 152.061 24.9813 151.752 25.6456Z" fill="black"/>
<path d="M126.13 15.7241C127.005 15.7241 127.715 15.0142 127.715 14.1384C127.715 13.2627 127.005 12.5527 126.13 12.5527C125.254 12.5527 124.544 13.2627 124.544 14.1384C124.544 15.0142 125.254 15.7241 126.13 15.7241Z" fill="black"/>
<path d="M118.896 19.0854H122.683V17.0496H118.896V13.3333H116.502V28.4007L117.702 29.5976H122.563V27.4945H118.896V19.0854Z" fill="black"/>
<path d="M60.4449 17.0374L59.248 18.2374V29.5976H61.6388V19.2629H67.3694V29.5976H69.7602V18.2343L68.5633 17.0374H60.4449Z" fill="black"/>
<path d="M203.588 0.916992H7.41224C3.60102 0.916992 0.5 4.01801 0.5 7.82924V38.5823C0.5 42.3935 3.60102 45.4945 7.41224 45.4945H203.588C207.399 45.4945 210.5 42.3935 210.5 38.5823V7.82924C210.5 4.01801 207.399 0.916992 203.588 0.916992ZM165.926 44.6497H7.41224C4.06633 44.6497 1.34796 41.9282 1.34796 38.5823V7.82924C1.34796 4.48332 4.06939 1.76495 7.41224 1.76495H165.926V44.6497ZM209.655 38.5823C209.655 41.9282 206.934 44.6497 203.588 44.6497H166.77V1.76495H203.588C206.934 1.76495 209.655 4.48638 209.655 7.82924V38.5823Z" fill="black"/>
<path d="M187.914 13.3823L197.315 22.7833H178.088V23.6282H197.315L187.914 33.0292L188.511 33.6292L198.935 23.2058L188.511 12.7823L187.914 13.3823Z" fill="black"/>
</svg>
