<svg width="63" height="33" viewBox="0 0 63 33" fill="none" xmlns="http://www.w3.org/2000/svg">
<g clip-path="url(#clip0_1360_217)">
<path d="M49.9732 13.2793C49.9732 7.13105 47.6929 5.07227 41.479 5.07227C34.9168 5.07227 32.3857 6.97664 32.3857 13.7332C32.3857 20.7471 36.5469 22.2958 41.3629 22.2958C46.3182 22.2958 49.9732 20.8968 49.9732 13.2793ZM41.3165 10.004C42.9698 10.004 44.0983 10.8743 44.0983 13.3261C44.0983 14.7719 43.9311 17.1115 41.3397 17.1115C40.3505 17.1115 38.2606 17.1115 38.2606 13.546C38.2653 10.9304 39.3659 10.004 41.3165 10.004Z" fill="#B3B3B3"/>
<path d="M1.17712 32.3414H3.13695V27.5828H4.31657V26.3008H3.03943V26.0341C3.03943 25.4866 3.42025 25.4305 3.87073 25.4305C4.04257 25.4305 4.14009 25.4539 4.32586 25.4773L4.47912 24.1297C4.15402 24.0689 3.76392 24.0361 3.45276 24.0361C1.78086 24.0361 1.17712 24.5695 1.17712 26.3055H0.461914V27.5875H1.17712V32.3414Z" fill="black"/>
<path d="M10.9853 32.3416V26.3057H9.02085V29.5389C9.02085 30.6104 8.37531 30.8865 7.94805 30.8865C7.32573 30.8865 6.97742 30.6057 6.97742 29.8056V26.3057H5.01758V29.9366C5.01758 31.5181 5.5145 32.5194 7.23284 32.5194C7.92482 32.5194 8.68647 32.1358 9.058 31.5181H9.08122V32.3416H10.9853Z" fill="black"/>
<path d="M10.1268 24.0361H8.39453V25.4913H10.1268V24.0361Z" fill="black"/>
<path d="M7.54868 24.0361H5.81641V25.4913H7.54868V24.0361Z" fill="black"/>
<path d="M12.1748 26.3056V32.3416H14.1393V29.3516C14.1393 28.5936 14.8313 27.9713 15.4768 27.9713C15.7415 27.9713 15.9644 27.9994 16.0852 28.0275L16.3081 26.1184C16.1595 26.081 15.8901 26.1044 15.7369 26.1044C15.0403 26.1044 14.3947 26.5957 14.1021 27.3631H14.0789V26.3056H12.1748V26.3056Z" fill="black"/>
<path d="M21.625 32.5146C22.317 32.5146 22.8929 32.2104 23.2737 31.6443H23.2969V32.3414H25.1685V24.0361H23.204V26.9559H23.1808C22.7767 26.4084 22.2102 26.1323 21.4717 26.1323C19.7766 26.1323 18.9453 27.6203 18.9453 29.1924C18.9453 30.8863 19.7395 32.5146 21.625 32.5146ZM22.0662 27.6437C22.9207 27.6437 23.2319 28.4438 23.2319 29.3188C23.2319 30.0861 23.0229 31.0032 22.0662 31.0032C21.1652 31.0032 20.7658 30.0861 20.7658 29.2579C20.7658 28.4906 21.1652 27.6437 22.0662 27.6437Z" fill="black"/>
<path d="M28.3173 26.3057H26.3574V29.0242V32.3416H28.3173V26.3057Z" fill="black"/>
<path d="M28.3173 24.0361H26.3574V24.7567V25.5475H28.3173V24.0361Z" fill="black"/>
<path d="M29.1953 29.3049C29.1953 31.3263 30.5235 32.5148 32.4741 32.5148C33.8116 32.5148 35.0934 31.9112 35.4556 30.5168H33.6212C33.4354 30.9566 32.9757 31.1812 32.502 31.1812C31.6707 31.1812 31.1969 30.6338 31.1644 29.8103H35.5625C35.6553 27.7608 34.5825 26.1372 32.4369 26.1372C30.6629 26.1325 29.1953 27.4567 29.1953 29.3049ZM32.4277 27.4661C33.0871 27.4661 33.5608 28.0229 33.5933 28.6967H31.1598C31.2713 27.9667 31.7357 27.4661 32.4277 27.4661Z" fill="black"/>
<path d="M42.2413 32.3414L43.3745 26.619H43.3977L44.5309 32.3414H46.6765L48.9521 24.0361H46.8065L45.6362 30.1095H45.613L44.4008 24.0361H42.3806L41.1685 30.1095H41.1499L39.9796 24.0361H37.834L40.0632 32.3414H42.2413Z" fill="black"/>
<path d="M51.8501 32.5147C53.1876 32.5147 54.4694 31.9112 54.827 30.5168H52.9925C52.8068 30.9566 52.347 31.1812 51.8733 31.1812C51.042 31.1812 50.5683 30.6338 50.5358 29.8103H54.9338C55.0267 27.7608 53.9539 26.1372 51.8036 26.1372C50.0388 26.1372 48.5713 27.4614 48.5713 29.3143C48.5713 31.3309 49.8995 32.5147 51.8501 32.5147ZM51.8036 27.4661C52.4631 27.4661 52.9322 28.0229 52.9693 28.6966H50.5358C50.6472 27.9667 51.1117 27.4661 51.8036 27.4661Z" fill="black"/>
<path d="M55.8525 32.3414H57.817V24.0361H55.8525V28.3221V32.3414Z" fill="black"/>
<path d="M62.6333 27.583V26.3009H61.4212V24.4761H60.2973C60.2973 24.4761 59.9722 25.964 58.4629 26.3009V27.583H59.4567V30.2687C59.4567 31.9111 59.884 32.3977 61.5559 32.3977C61.9135 32.3977 62.2711 32.3509 62.6287 32.3416V30.8864C62.4569 30.8864 62.285 30.9098 62.1225 30.9098C61.6952 30.9098 61.4166 30.8068 61.4166 30.3249V27.5783H62.6333V27.583Z" fill="black"/>
<path d="M19.4981 15.3332C19.4981 12.2029 18.1606 10.4483 16.0382 10.0271C17.947 9.4797 18.6436 8.00112 18.6436 5.85344C18.6436 2.90096 17.7055 0.514648 12.6062 0.514648H1.06543V21.7996H13.7301C17.4547 21.7996 19.4981 19.5958 19.4981 15.3332ZM7.5719 5.17498H10.6371C11.9699 5.17498 12.4901 5.61013 12.4901 6.822C12.4901 8.36609 11.6309 8.80592 10.2702 8.80592H7.5719V5.17498V5.17498ZM11.069 17.041H7.5719V12.7691H10.9203C12.4576 12.7691 13.2006 13.5084 13.2006 14.8559C13.2006 16.6246 12.4297 17.041 11.069 17.041Z" fill="black"/>
<path d="M26.9891 17.2003C26.9891 12.816 27.7554 12.1142 31.011 12.1142L31.7354 5.94249C29.9707 5.70854 27.356 6.02203 26.2878 8.88093L26.2507 6.40572H21.1328V21.8793H26.9938V17.2003H26.9891Z" fill="black"/>
<path d="M53.0946 15.5861C53.0946 21.3132 56.0762 22.1321 58.5608 22.1321C59.8008 22.1321 61.691 22.0572 62.6337 21.9777V17.4203L60.9851 17.4156C59.5082 17.4156 59.1831 16.6904 59.1831 14.3228V11.01H62.6337V6.33094H59.1831V1.61914H55.0266C54.8037 3.84637 54.0188 6.33094 50.9072 6.33094V11.0147H53.09V15.5861H53.0946Z" fill="black"/>
</g>
<defs>
<clipPath id="clip0_1360_217">
<rect width="62.1714" height="32" fill="white" transform="translate(0.461914 0.514648)"/>
</clipPath>
</defs>
</svg>
