<svg xmlns="http://www.w3.org/2000/svg" viewBox="0 0 1156.75 275.34"><defs><style>.cls-1{fill:#303332;}.cls-2{fill:#3b3735;}</style></defs><g id="Capa_1" data-name="Capa 1"><path class="cls-1" d="M87.91,169.87l.11.1.48.65.17.24Z"/><path class="cls-1" d="M138.23,209.3a21.08,21.08,0,0,0,1.9,1C140.49,210.53,140.24,210.49,138.23,209.3Z"/><path class="cls-1" d="M235.2,210.18a14.86,14.86,0,0,0,2-.74C238,209.23,238.37,209.26,235.2,210.18Z"/><path class="cls-1" d="M190.63,4.26C108.88,4.43,35.94,59.15,8,139.63c22.27,64.16,73.06,111.82,134,128.69,3.84-4.27,3.75-9.24,2.18-13.75C101.59,243.14,64.6,214,42.83,175.68c-5.68-10-2.07-22,7.37-28.11,9.25-6,22.8-2,28.11,7.37a152.53,152.53,0,0,0,9.34,14.52L88,170a17.88,17.88,0,0,1,1.69,2.14q2.73,3.31,5.66,6.47a150.1,150.1,0,0,0,11.32,11c1.08.94,2.18,1.87,3.29,2.77l1.59,1.25-1-.71c.11.1.34.27.69.53.52.4.81.61.92.68l-.3-.25,1.92,1.39c.78.55,1.56,1.1,2.36,1.64a143.85,143.85,0,0,0,12.92,7.85q2.86,1.55,5.8,3c1.31.63,2.63,1.22,4,1.84a8.57,8.57,0,0,1,1.29.77c3.84,1.76,8.45,2.81,12.31,3.94q6.76,2,13.68,3.27c1.47.28,2.95.5,4.42.76l.36.07c-4.7-.44,4.17.77,0,0h.12c2.26.21,4.52.46,6.79.61q7.28.5,14.57.27,4.17-.13,8.34-.5c1.25-.11,2.49-.25,3.74-.38,3.78-.36-.35.16-1,.16,4.54.2,10.13-1.77,14.51-2.87q7.09-1.8,14-4.28c1.37-.5,2.72-1,4.08-1.55.32-.12.74-.24,1.08-.33,1.57-.68,3.14-1.57,4.58-2.28q6.45-3.18,12.56-7c2-1.26,4-2.57,6-3.93q1.47-1,2.91-2.07l.18-.14h0a14,14,0,0,0,1.51-1.38s-.05,0-.12.08c6.39-6,13.09-11.3,18.88-18a59.32,59.32,0,0,0,4.31-5.17c-.27.43-.48.75-.62,1,.69-1,2.25-3.41,2.71-4.08,2.73-3.93,5.23-8,7.57-12.16,5.62-10,18.4-12.51,28.11-7.38,9.92,5.25,12.64,18.74,7.37,28.11A170.77,170.77,0,0,1,281,231.74,159.43,159.43,0,0,1,233.39,254c-6.51,5.85-4.13,11.88.67,15.88,63.65-15.34,117-64.06,140-130.22C346,58.78,272.58,4.09,190.63,4.26ZM191,203.77a64.15,64.15,0,1,1,64.15-64.14A64.15,64.15,0,0,1,191,203.77Z"/><path class="cls-2" d="M138.23,209.3a21.08,21.08,0,0,0,1.9,1C140.49,210.53,140.24,210.49,138.23,209.3Z"/><path class="cls-2" d="M170.93,218.3c4.14.77-4.73-.44,0,0Z"/><path class="cls-2" d="M235.2,210.18a14.86,14.86,0,0,0,2-.74C238,209.23,238.37,209.26,235.2,210.18Z"/><path class="cls-1" d="M426.89,260.58H422.7V232.47h4.19v7.34a14.76,14.76,0,0,1,1.9-3.21,12.76,12.76,0,0,1,2.61-2.53,11,11,0,0,1,3.21-1.6,11.16,11.16,0,0,1,3.75-.49v4.51H438a11.42,11.42,0,0,0-4.33.82,9.65,9.65,0,0,0-3.56,2.44,11.57,11.57,0,0,0-2.39,4.05,16.51,16.51,0,0,0-.87,5.58Z"/><path class="cls-1" d="M447.17,252.13a10,10,0,0,0,2.23,3,9.56,9.56,0,0,0,3.05,1.85,10.2,10.2,0,0,0,3.53.62,10.71,10.71,0,0,0,5-1.09,14.64,14.64,0,0,0,3.84-2.88l2.61,2.34a17.39,17.39,0,0,1-4.84,3.83,14.31,14.31,0,0,1-6.75,1.44,13.94,13.94,0,0,1-5.43-1.06,13.39,13.39,0,0,1-4.48-3,14.21,14.21,0,0,1-3-4.65,15.28,15.28,0,0,1-1.13-6,16.3,16.3,0,0,1,1-5.74,14.34,14.34,0,0,1,2.81-4.67,12.79,12.79,0,0,1,9.68-4.27,12.69,12.69,0,0,1,5.54,1.17,12.27,12.27,0,0,1,4.14,3.18,13.91,13.91,0,0,1,2.55,4.73,19,19,0,0,1,.87,5.82v.6a6.06,6.06,0,0,1-.05.7H446.08A11.72,11.72,0,0,0,447.17,252.13ZM464.09,245a14.23,14.23,0,0,0-.79-3.64,9.61,9.61,0,0,0-1.73-3.05,8.45,8.45,0,0,0-2.7-2.09,8.33,8.33,0,0,0-3.7-.79,7.94,7.94,0,0,0-3.41.74,9,9,0,0,0-2.76,2,10.51,10.51,0,0,0-1.94,3,12.87,12.87,0,0,0-1,3.8Z"/><path class="cls-1" d="M498.29,260.58v-5.65a21.7,21.7,0,0,1-1.93,2.39,13,13,0,0,1-2.36,2,11.11,11.11,0,0,1-2.91,1.36,12.06,12.06,0,0,1-3.56.49,13,13,0,0,1-4.95-1,13.13,13.13,0,0,1-4.3-2.85,14.22,14.22,0,0,1-3-4.6,17.43,17.43,0,0,1,0-12.4,14.06,14.06,0,0,1,3-4.59,13.41,13.41,0,0,1,4.3-2.89,12.62,12.62,0,0,1,4.95-1,12.25,12.25,0,0,1,3.58.49,11.92,11.92,0,0,1,2.94,1.3,12.88,12.88,0,0,1,2.37,1.91,16.65,16.65,0,0,1,1.87,2.28v-17h4.19v39.7Zm-.68-18.52a10.21,10.21,0,0,0-2.28-3.41,10.63,10.63,0,0,0-3.26-2.19,9.56,9.56,0,0,0-3.78-.79,10.24,10.24,0,0,0-3.86.73,9.06,9.06,0,0,0-3.13,2.11,10,10,0,0,0-2.12,3.41,12.5,12.5,0,0,0-.79,4.58,12.09,12.09,0,0,0,.79,4.49,10.36,10.36,0,0,0,2.15,3.43,9.2,9.2,0,0,0,3.15,2.2,9.77,9.77,0,0,0,3.81.75,9.55,9.55,0,0,0,3.78-.78,10.63,10.63,0,0,0,3.26-2.19,10.24,10.24,0,0,0,2.28-3.44,11.36,11.36,0,0,0,.85-4.46A11.16,11.16,0,0,0,497.61,242.06Z"/><path class="cls-1" d="M550.72,260.58v-5.65a22.93,22.93,0,0,1-1.93,2.39,13.41,13.41,0,0,1-2.37,2,11.11,11.11,0,0,1-2.91,1.36,12,12,0,0,1-3.56.49,13.12,13.12,0,0,1-9.24-3.83,14.06,14.06,0,0,1-3.05-4.6,17.43,17.43,0,0,1,0-12.4,13.91,13.91,0,0,1,3.05-4.59,13.36,13.36,0,0,1,4.29-2.89,12.69,12.69,0,0,1,5-1,12.32,12.32,0,0,1,3.59.49,11.92,11.92,0,0,1,2.94,1.3,12.49,12.49,0,0,1,2.36,1.91,16.73,16.73,0,0,1,1.88,2.28v-17h4.19v39.7ZM550,242.06a10.08,10.08,0,0,0-2.29-3.41,10.51,10.51,0,0,0-3.26-2.19,9.49,9.49,0,0,0-3.78-.79,10.28,10.28,0,0,0-3.86.73,9.06,9.06,0,0,0-3.13,2.11,10.18,10.18,0,0,0-2.12,3.41,12.71,12.71,0,0,0-.79,4.58,12.3,12.3,0,0,0,.79,4.49,10.52,10.52,0,0,0,2.15,3.43,9.4,9.4,0,0,0,3.15,2.2,9.81,9.81,0,0,0,3.81.75,9.48,9.48,0,0,0,3.78-.78,10.51,10.51,0,0,0,3.26-2.19A10.12,10.12,0,0,0,550,251a11.54,11.54,0,0,0,.84-4.46A11.33,11.33,0,0,0,550,242.06Z"/><path class="cls-1" d="M567.9,252.13a10,10,0,0,0,2.23,3,9.56,9.56,0,0,0,3,1.85,10.2,10.2,0,0,0,3.53.62,10.71,10.71,0,0,0,5-1.09,14.64,14.64,0,0,0,3.84-2.88l2.61,2.34a17.39,17.39,0,0,1-4.84,3.83,14.3,14.3,0,0,1-6.74,1.44,14,14,0,0,1-5.44-1.06,13.39,13.39,0,0,1-4.48-3,14.21,14.21,0,0,1-3-4.65,15.46,15.46,0,0,1-1.13-6,16.3,16.3,0,0,1,1-5.74,14.52,14.52,0,0,1,2.81-4.67,13.3,13.3,0,0,1,15.22-3.1,12.18,12.18,0,0,1,4.14,3.18,13.91,13.91,0,0,1,2.55,4.73,19,19,0,0,1,.87,5.82v.6a6.06,6.06,0,0,1-.05.7H566.82A11.5,11.5,0,0,0,567.9,252.13ZM584.82,245a14.23,14.23,0,0,0-.79-3.64,9.61,9.61,0,0,0-1.73-3.05,8.45,8.45,0,0,0-2.7-2.09,8.33,8.33,0,0,0-3.7-.79,7.94,7.94,0,0,0-3.41.74,9.07,9.07,0,0,0-2.76,2,10.51,10.51,0,0,0-1.94,3,12.56,12.56,0,0,0-1,3.8Z"/><path class="cls-1" d="M633.6,232.47h4.51L625.88,260.8h-3.7L610,232.47h4.62l9.46,23.33Z"/><path class="cls-1" d="M644.8,226.32V221.7h4.79v4.62Zm.27,34.26V232.47h4.19v28.11Z"/><path class="cls-1" d="M684.74,261.67a11.28,11.28,0,0,1-2.88,4.27,12.3,12.3,0,0,1-4.51,2.58,18.8,18.8,0,0,1-5.9.87,22.77,22.77,0,0,1-6.75-1,21.59,21.59,0,0,1-6-2.93l1.9-3.27a20.49,20.49,0,0,0,5.11,2.67,17.48,17.48,0,0,0,5.71.92,10.61,10.61,0,0,0,7.45-2.53q2.77-2.52,2.78-7.47v-3.32a17.92,17.92,0,0,1-4.52,4.19,11.66,11.66,0,0,1-6.52,1.74,13.67,13.67,0,0,1-4.92-.9,12.72,12.72,0,0,1-7.18-6.77,13.13,13.13,0,0,1-1.12-5.55,13.29,13.29,0,0,1,1.12-5.57,12.76,12.76,0,0,1,3-4.19,13.28,13.28,0,0,1,4.24-2.64,13.64,13.64,0,0,1,4.9-.92,13.31,13.31,0,0,1,3.61.46,13.54,13.54,0,0,1,3,1.22,13,13,0,0,1,2.42,1.8,18.83,18.83,0,0,1,1.95,2.17v-5.05h4.19v23.22A16.08,16.08,0,0,1,684.74,261.67Zm-3.88-20.48a9.53,9.53,0,0,0-2.31-3,10.6,10.6,0,0,0-3.3-1.94,11.16,11.16,0,0,0-3.86-.67,10.73,10.73,0,0,0-3.78.65,8.86,8.86,0,0,0-5.19,4.92,9.82,9.82,0,0,0-.76,3.94,9.46,9.46,0,0,0,2.91,7,9.19,9.19,0,0,0,3.1,2,10.35,10.35,0,0,0,3.72.68,11.16,11.16,0,0,0,3.86-.68,10.58,10.58,0,0,0,3.3-1.93,9.57,9.57,0,0,0,2.31-3,9.38,9.38,0,0,0,0-7.89Z"/><path class="cls-1" d="M695.21,226.32V221.7H700v4.62Zm.27,34.26V232.47h4.19v28.11Z"/><path class="cls-1" d="M709.79,260.58v-39.7H714v39.7Z"/><path class="cls-1" d="M729.34,236.35a25.15,25.15,0,0,0-4,1.5l-1.25-3.43a28.57,28.57,0,0,1,4.73-1.71,21.64,21.64,0,0,1,5.49-.63c3.85,0,6.8,1,8.87,2.86s3.1,4.72,3.1,8.46v17.18h-4v-4.24a13.76,13.76,0,0,1-3.94,3.37,12,12,0,0,1-6.23,1.47,13.79,13.79,0,0,1-3.83-.54,10.61,10.61,0,0,1-3.37-1.66,8.56,8.56,0,0,1-2.4-2.75,8,8,0,0,1-.89-3.86,8.56,8.56,0,0,1,.87-3.94,7.72,7.72,0,0,1,2.47-2.86,11.92,11.92,0,0,1,3.81-1.74,18.51,18.51,0,0,1,4.87-.6,29.61,29.61,0,0,1,4.73.33,35.25,35.25,0,0,1,3.91.87v-1a7.22,7.22,0,0,0-2.2-5.74,9.1,9.1,0,0,0-6.17-1.93A16.84,16.84,0,0,0,729.34,236.35ZM728,247.91a5.07,5.07,0,0,0-2.12,4.3,4.88,4.88,0,0,0,.57,2.39,5.57,5.57,0,0,0,1.55,1.77,7,7,0,0,0,2.25,1.11,9.09,9.09,0,0,0,2.68.38,11.5,11.5,0,0,0,3.66-.57,9.53,9.53,0,0,0,3-1.58,7.42,7.42,0,0,0,2-2.39,6.56,6.56,0,0,0,.73-3.07v-2.72c-1-.29-2.25-.56-3.61-.82a25.64,25.64,0,0,0-4.63-.38A10,10,0,0,0,728,247.91Z"/><path class="cls-1" d="M759.38,260.58H755.2V232.47h4.18v4.89a13.42,13.42,0,0,1,3.7-3.89,10.11,10.11,0,0,1,5.93-1.6,11.94,11.94,0,0,1,4.54.81,9.55,9.55,0,0,1,3.37,2.31,10.14,10.14,0,0,1,2.12,3.57,13.5,13.5,0,0,1,.74,4.56v17.46h-4.19V244.16a9.05,9.05,0,0,0-2-6.2,7.3,7.3,0,0,0-5.77-2.29,8.79,8.79,0,0,0-3.34.63,7.83,7.83,0,0,0-2.69,1.79,8.25,8.25,0,0,0-1.77,2.8,9.92,9.92,0,0,0-.63,3.59Z"/><path class="cls-1" d="M808,259.69a13.23,13.23,0,0,1-6.66,1.54,14.15,14.15,0,0,1-5.74-1.16,14.6,14.6,0,0,1-4.57-3.16,14.36,14.36,0,0,1-3-4.65,14.87,14.87,0,0,1-1.08-5.65,15.15,15.15,0,0,1,1.08-5.69,14.7,14.7,0,0,1,3-4.7,14.33,14.33,0,0,1,4.57-3.18,14,14,0,0,1,5.74-1.17,15.71,15.71,0,0,1,3.64.38,13.35,13.35,0,0,1,3,1.06,13.66,13.66,0,0,1,2.5,1.6,22.19,22.19,0,0,1,2.13,2l-2.78,2.94a19.62,19.62,0,0,0-3.67-3,8.91,8.91,0,0,0-4.87-1.25,9.52,9.52,0,0,0-4,.84,9.74,9.74,0,0,0-3.21,2.33,11,11,0,0,0-2.12,3.47,11.93,11.93,0,0,0-.76,4.26,11.76,11.76,0,0,0,.79,4.29,11,11,0,0,0,2.18,3.49,9.82,9.82,0,0,0,7.37,3.18,9.51,9.51,0,0,0,4.81-1.2,16.39,16.39,0,0,0,3.78-3l2.66,2.5A19.07,19.07,0,0,1,808,259.69Z"/><path class="cls-1" d="M819.86,226.32V221.7h4.78v4.62Zm.27,34.26V232.47h4.19v28.11Z"/><path class="cls-1" d="M839.68,236.35a25.15,25.15,0,0,0-4,1.5l-1.25-3.43a28.9,28.9,0,0,1,4.73-1.71,21.72,21.72,0,0,1,5.5-.63c3.84,0,6.79,1,8.86,2.86s3.1,4.72,3.1,8.46v17.18h-4v-4.24a13.8,13.8,0,0,1-4,3.37,12,12,0,0,1-6.22,1.47,13.81,13.81,0,0,1-3.84-.54,10.71,10.71,0,0,1-3.37-1.66,8.53,8.53,0,0,1-2.39-2.75,7.87,7.87,0,0,1-.9-3.86,8.56,8.56,0,0,1,.87-3.94,7.82,7.82,0,0,1,2.47-2.86,11.92,11.92,0,0,1,3.81-1.74,18.51,18.51,0,0,1,4.87-.6,29.61,29.61,0,0,1,4.73.33,35.42,35.42,0,0,1,3.92.87v-1a7.23,7.23,0,0,0-2.21-5.74,9.07,9.07,0,0,0-6.17-1.93A16.84,16.84,0,0,0,839.68,236.35Zm-1.34,11.56a5.07,5.07,0,0,0-2.11,4.3,4.88,4.88,0,0,0,.57,2.39,5.54,5.54,0,0,0,1.54,1.77,7,7,0,0,0,2.25,1.11,9.09,9.09,0,0,0,2.68.38,11.5,11.5,0,0,0,3.66-.57,9.53,9.53,0,0,0,3-1.58,7.42,7.42,0,0,0,2-2.39,6.44,6.44,0,0,0,.73-3.07v-2.72c-1-.29-2.25-.56-3.6-.82a25.75,25.75,0,0,0-4.64-.38A10,10,0,0,0,838.34,247.91Z"/><path class="cls-1" d="M901.19,259.69a13.23,13.23,0,0,1-6.66,1.54,14.15,14.15,0,0,1-5.74-1.16,14.6,14.6,0,0,1-4.57-3.16,14.36,14.36,0,0,1-3-4.65,14.88,14.88,0,0,1-1.09-5.65,15.16,15.16,0,0,1,1.09-5.69,14.7,14.7,0,0,1,3-4.7,14.33,14.33,0,0,1,4.57-3.18,14,14,0,0,1,5.74-1.17,15.71,15.71,0,0,1,3.64.38,13.46,13.46,0,0,1,5.49,2.66,22.06,22.06,0,0,1,2.12,2L903,239.81a19.62,19.62,0,0,0-3.67-3,8.91,8.91,0,0,0-4.87-1.25,9.49,9.49,0,0,0-4,.84,9.74,9.74,0,0,0-3.21,2.33,11,11,0,0,0-2.12,3.47,11.72,11.72,0,0,0-.76,4.26,11.55,11.55,0,0,0,.79,4.29,10.94,10.94,0,0,0,2.17,3.49,9.86,9.86,0,0,0,7.37,3.18,9.52,9.52,0,0,0,4.82-1.2,16.39,16.39,0,0,0,3.78-3l2.66,2.5A19.07,19.07,0,0,1,901.19,259.69Z"/><path class="cls-1" d="M932.87,232.47H937v28.11h-4.13v-4.89a13.42,13.42,0,0,1-3.7,3.89,10.16,10.16,0,0,1-5.93,1.6,11.74,11.74,0,0,1-4.54-.82,9.3,9.3,0,0,1-3.37-2.31,10,10,0,0,1-2.12-3.56,13.56,13.56,0,0,1-.74-4.57V232.47h4.19v16.42a9.05,9.05,0,0,0,2,6.2,7.29,7.29,0,0,0,5.77,2.28,9,9,0,0,0,3.34-.62,7.68,7.68,0,0,0,2.67-1.8,8.61,8.61,0,0,0,1.76-2.8,9.48,9.48,0,0,0,.66-3.59Z"/><path class="cls-1" d="M946.52,226.32V221.7h4.78v4.62Zm.27,34.26V232.47H951v28.11Z"/><path class="cls-1" d="M983.28,260.58v-5.65a21.7,21.7,0,0,1-1.93,2.39,13.41,13.41,0,0,1-2.37,2,11.11,11.11,0,0,1-2.91,1.36,12,12,0,0,1-3.56.49,13.12,13.12,0,0,1-9.24-3.83,14.06,14.06,0,0,1-3-4.6,17.43,17.43,0,0,1,0-12.4,13.91,13.91,0,0,1,3-4.59,13.36,13.36,0,0,1,4.29-2.89,12.69,12.69,0,0,1,5-1,12.32,12.32,0,0,1,3.59.49,11.92,11.92,0,0,1,2.94,1.3,12.49,12.49,0,0,1,2.36,1.91,16.73,16.73,0,0,1,1.88,2.28v-17h4.19v39.7Zm-.68-18.52a10.08,10.08,0,0,0-2.29-3.41,10.51,10.51,0,0,0-3.26-2.19,9.49,9.49,0,0,0-3.78-.79,10.28,10.28,0,0,0-3.86.73,9.06,9.06,0,0,0-3.13,2.11,10.34,10.34,0,0,0-2.12,3.41,12.71,12.71,0,0,0-.79,4.58,12.3,12.3,0,0,0,.79,4.49,10.52,10.52,0,0,0,2.15,3.43,9.34,9.34,0,0,0,3.16,2.2,9.72,9.72,0,0,0,3.8.75,9.48,9.48,0,0,0,3.78-.78,10.51,10.51,0,0,0,3.26-2.19A10.12,10.12,0,0,0,982.6,251a11.54,11.54,0,0,0,.84-4.46A11.33,11.33,0,0,0,982.6,242.06Z"/><path class="cls-1" d="M1002.45,236.35a25.15,25.15,0,0,0-4,1.5l-1.25-3.43a28.9,28.9,0,0,1,4.73-1.71,21.72,21.72,0,0,1,5.5-.63c3.84,0,6.79,1,8.86,2.86s3.1,4.72,3.1,8.46v17.18h-4v-4.24a13.62,13.62,0,0,1-3.94,3.37,12,12,0,0,1-6.23,1.47,13.79,13.79,0,0,1-3.83-.54A10.71,10.71,0,0,1,998,259a8.41,8.41,0,0,1-2.39-2.75,7.87,7.87,0,0,1-.9-3.86,8.56,8.56,0,0,1,.87-3.94,7.72,7.72,0,0,1,2.47-2.86,11.92,11.92,0,0,1,3.81-1.74,18.51,18.51,0,0,1,4.87-.6,29.61,29.61,0,0,1,4.73.33,34.75,34.75,0,0,1,3.91.87v-1a7.22,7.22,0,0,0-2.2-5.74,9.08,9.08,0,0,0-6.17-1.93A16.84,16.84,0,0,0,1002.45,236.35Zm-1.34,11.56a5.07,5.07,0,0,0-2.11,4.3,5,5,0,0,0,.56,2.39,5.57,5.57,0,0,0,1.55,1.77,7,7,0,0,0,2.25,1.11,9.09,9.09,0,0,0,2.68.38,11.5,11.5,0,0,0,3.66-.57,9.53,9.53,0,0,0,3-1.58,7.42,7.42,0,0,0,2-2.39,6.44,6.44,0,0,0,.73-3.07v-2.72c-1-.29-2.25-.56-3.61-.82a25.64,25.64,0,0,0-4.63-.38A10,10,0,0,0,1001.11,247.91Z"/><path class="cls-1" d="M1050.88,260.58v-5.65a22.93,22.93,0,0,1-1.93,2.39,13.41,13.41,0,0,1-2.37,2,11.11,11.11,0,0,1-2.91,1.36,12.06,12.06,0,0,1-3.56.49,13.17,13.17,0,0,1-9.25-3.83,14.19,14.19,0,0,1-3-4.6,17.43,17.43,0,0,1,0-12.4,14,14,0,0,1,3-4.59,13.41,13.41,0,0,1,4.3-2.89,12.66,12.66,0,0,1,4.95-1,12.37,12.37,0,0,1,3.59.49,11.92,11.92,0,0,1,2.94,1.3,12.82,12.82,0,0,1,2.36,1.91,16.73,16.73,0,0,1,1.88,2.28v-17h4.18v39.7Zm-.68-18.52a10.23,10.23,0,0,0-2.29-3.41,10.63,10.63,0,0,0-3.26-2.19,9.49,9.49,0,0,0-3.78-.79,10.28,10.28,0,0,0-3.86.73,9.06,9.06,0,0,0-3.13,2.11,10.18,10.18,0,0,0-2.12,3.41,12.71,12.71,0,0,0-.79,4.58,12.3,12.3,0,0,0,.79,4.49,10.52,10.52,0,0,0,2.15,3.43,9.4,9.4,0,0,0,3.15,2.2,9.81,9.81,0,0,0,3.81.75,9.48,9.48,0,0,0,3.78-.78,10.63,10.63,0,0,0,3.26-2.19,10.26,10.26,0,0,0,2.29-3.44,11.54,11.54,0,0,0,.84-4.46A11.33,11.33,0,0,0,1050.2,242.06Z"/><path class="cls-1" d="M1070.05,236.35a25.15,25.15,0,0,0-4,1.5l-1.25-3.43a28.9,28.9,0,0,1,4.73-1.71,21.69,21.69,0,0,1,5.49-.63c3.85,0,6.8,1,8.87,2.86s3.1,4.72,3.1,8.46v17.18h-4v-4.24a13.76,13.76,0,0,1-3.94,3.37,12,12,0,0,1-6.23,1.47,13.79,13.79,0,0,1-3.83-.54,10.61,10.61,0,0,1-3.37-1.66,8.56,8.56,0,0,1-2.4-2.75,8,8,0,0,1-.89-3.86,8.56,8.56,0,0,1,.87-3.94,7.72,7.72,0,0,1,2.47-2.86,11.92,11.92,0,0,1,3.81-1.74,18.51,18.51,0,0,1,4.87-.6,29.61,29.61,0,0,1,4.73.33,35.25,35.25,0,0,1,3.91.87v-1a7.22,7.22,0,0,0-2.2-5.74,9.1,9.1,0,0,0-6.17-1.93A16.84,16.84,0,0,0,1070.05,236.35Zm-1.34,11.56a5.07,5.07,0,0,0-2.12,4.3,4.88,4.88,0,0,0,.57,2.39,5.57,5.57,0,0,0,1.55,1.77,7,7,0,0,0,2.25,1.11,9.09,9.09,0,0,0,2.68.38,11.5,11.5,0,0,0,3.66-.57,9.53,9.53,0,0,0,3-1.58,7.42,7.42,0,0,0,2-2.39,6.56,6.56,0,0,0,.73-3.07v-2.72c-1-.29-2.25-.56-3.61-.82a25.64,25.64,0,0,0-4.63-.38A10,10,0,0,0,1068.71,247.91Z"/><path class="cls-1" d="M1100.09,260.58h-4.18V232.47h4.18v4.89a13.42,13.42,0,0,1,3.7-3.89,10.11,10.11,0,0,1,5.93-1.6,11.94,11.94,0,0,1,4.54.81,9.55,9.55,0,0,1,3.37,2.31,10,10,0,0,1,2.12,3.57,13.5,13.5,0,0,1,.74,4.56v17.46h-4.19V244.16a9.05,9.05,0,0,0-2-6.2,7.28,7.28,0,0,0-5.77-2.29,8.79,8.79,0,0,0-3.34.63,7.83,7.83,0,0,0-2.69,1.79,8.25,8.25,0,0,0-1.77,2.8,9.92,9.92,0,0,0-.63,3.59Z"/><path class="cls-1" d="M1135,236.35a24.8,24.8,0,0,0-4,1.5l-1.25-3.43a28.57,28.57,0,0,1,4.73-1.71,21.64,21.64,0,0,1,5.49-.63c3.85,0,6.8,1,8.87,2.86s3.1,4.72,3.1,8.46v17.18h-4v-4.24a13.76,13.76,0,0,1-3.94,3.37,12,12,0,0,1-6.23,1.47,13.79,13.79,0,0,1-3.83-.54,10.61,10.61,0,0,1-3.37-1.66,8.56,8.56,0,0,1-2.4-2.75,8,8,0,0,1-.89-3.86,8.56,8.56,0,0,1,.87-3.94,7.72,7.72,0,0,1,2.47-2.86,11.92,11.92,0,0,1,3.81-1.74,18.51,18.51,0,0,1,4.87-.6,29.7,29.7,0,0,1,4.73.33,35.25,35.25,0,0,1,3.91.87v-1a7.22,7.22,0,0,0-2.2-5.74,9.1,9.1,0,0,0-6.17-1.93A16.84,16.84,0,0,0,1135,236.35Zm-1.34,11.56a5.07,5.07,0,0,0-2.12,4.3,4.88,4.88,0,0,0,.57,2.39,5.57,5.57,0,0,0,1.55,1.77,7,7,0,0,0,2.25,1.11,9,9,0,0,0,2.68.38,11.5,11.5,0,0,0,3.66-.57,9.53,9.53,0,0,0,3-1.58,7.27,7.27,0,0,0,2-2.39,6.45,6.45,0,0,0,.74-3.07v-2.72c-1-.29-2.25-.56-3.61-.82a25.64,25.64,0,0,0-4.63-.38A10,10,0,0,0,1133.7,247.91Z"/><path class="cls-1" d="M476,39.57a22,22,0,0,1-6.18,7.7,27.62,27.62,0,0,1-9.16,4.67,38.52,38.52,0,0,1-11.22,1.59H435.15V76.64H422.63V4.76H451a35.72,35.72,0,0,1,11.34,1.69,24.17,24.17,0,0,1,8.63,4.88,21.61,21.61,0,0,1,5.44,7.6,24.88,24.88,0,0,1,1.9,10A24.11,24.11,0,0,1,476,39.57ZM461.22,19.4q-4.23-3.24-11.33-3.25H435.15v26h14.74q7.2,0,11.38-3.55a11.79,11.79,0,0,0,4.17-9.44Q465.44,22.66,461.22,19.4Z"/><path class="cls-1" d="M491.22,4.76h12.53V65.24h37.78v11.4H491.22Z"/><path class="cls-1" d="M623.58,76.64H610.23l-7.29-17.36H569l-7.39,17.36H548.62l31.62-72.4H592Zm-37.69-57.3L573.57,48.09h24.75Z"/><path class="cls-1" d="M657.05,76.64H644.32V16.46h-22.8V4.76h58.33v11.7h-22.8Z"/><path class="cls-1" d="M752.75,76.64H739.41l-7.3-17.36h-34l-7.4,17.36H677.79l31.63-72.4h11.71Zm-37.68-57.3L702.75,48.09h24.74Z"/><path class="cls-1" d="M818.47,16.15H777.6V36h36.25v11.4H777.6V76.64H765.08V4.76h53.39Z"/><path class="cls-1" d="M901,55a36.19,36.19,0,0,1-7.8,11.86,37.51,37.51,0,0,1-27.11,11,38.46,38.46,0,0,1-15.2-2.93,35.69,35.69,0,0,1-19.51-19.76,37.58,37.58,0,0,1-2.77-14.38,37.58,37.58,0,0,1,2.77-14.38,36.19,36.19,0,0,1,7.8-11.86,37.4,37.4,0,0,1,27.11-11,38.46,38.46,0,0,1,15.2,2.92A35.67,35.67,0,0,1,901,26.22a37.56,37.56,0,0,1,2.77,14.37A37.58,37.58,0,0,1,901,55ZM888.76,30.89a25.26,25.26,0,0,0-5-8.16A24,24,0,0,0,876,17.18a23.56,23.56,0,0,0-9.86-2,23.8,23.8,0,0,0-9.81,2,23.32,23.32,0,0,0-7.65,5.44,25.16,25.16,0,0,0-5,8.12,28.15,28.15,0,0,0,0,19.81,25.31,25.31,0,0,0,5,8.17,24.11,24.11,0,0,0,7.75,5.54,24.78,24.78,0,0,0,19.67.05,23.17,23.17,0,0,0,7.65-5.44,25.11,25.11,0,0,0,5-8.11,28.18,28.18,0,0,0,0-19.82Z"/><path class="cls-1" d="M965.21,76.64,947.49,51.58H931.63V76.64H919.1V4.76h32a36.51,36.51,0,0,1,11.14,1.59,24.15,24.15,0,0,1,8.42,4.52A19.45,19.45,0,0,1,976,18.05a23.71,23.71,0,0,1,1.85,9.5,23.42,23.42,0,0,1-1.29,8.06A20.6,20.6,0,0,1,973,41.88a21.48,21.48,0,0,1-5.39,4.62,26.51,26.51,0,0,1-6.93,2.92L980.1,76.64ZM961.09,19.2q-3.92-3-11-3.05H931.63V40.39h18.54q6.8,0,10.81-3.3a10.89,10.89,0,0,0,4-8.87Q965,22.24,961.09,19.2Z"/><path class="cls-1" d="M1028.77,59h-.41l-22.49-33.68V76.64H993.34V4.76h13.45l21.88,34,21.87-34H1064V76.64h-12.53V25.09Z"/><path class="cls-1" d="M1151.27,76.64h-13.35l-7.29-17.36h-34l-7.39,17.36h-12.94l31.63-72.4h11.7Zm-37.68-57.3-12.33,28.75H1126Z"/><path class="cls-1" d="M421.53,114.41h25.12l18.41,51.28,18.4-51.28h24.66L475.24,196H454.4Z"/><path class="cls-1" d="M516.46,114.41H539v81H516.46Z"/><path class="cls-1" d="M551.08,155.16v-.23c0-23.62,18.52-42.14,43.64-42.14,14.24,0,24.31,4.4,32.88,11.8l-13.2,15.86c-5.79-4.86-11.58-7.64-19.56-7.64-11.69,0-20.73,9.84-20.73,22.23v.23c0,13.08,9.15,22.46,22,22.46,5.44,0,9.61-1.16,13-3.36v-9.84h-16V148.1h37.28v36.46a54.81,54.81,0,0,1-35.2,12.51C570,197.07,551.08,179.7,551.08,155.16Z"/><path class="cls-1" d="M643.35,114.41h22.57v81H643.35Z"/><path class="cls-1" d="M680.74,114.41H703.2v61.35h39.25v19.68H680.74Z"/><path class="cls-1" d="M780.08,113.83h21.65l34.5,81.61H812.15L806.24,181H775l-5.79,14.47H745.58Zm19.68,49.66-9-23-9.15,23Z"/><path class="cls-1" d="M844.1,114.41h21l33.34,42.83V114.41h22.23v81H900.94L866.33,151v44.45H844.1Z"/><path class="cls-1" d="M954.78,134.09H930.47V114.41h71.08v19.68H977.24v61.35H954.78Z"/><path class="cls-1" d="M1011.39,114.41h65.18v19.1h-43v12.27h38.9v17.71h-38.9v12.85h43.53v19.1h-65.76Z"/><path class="cls-1" d="M1082.48,183.4l12.5-14.93c8,6.37,16.91,9.73,26.28,9.73,6,0,9.26-2.09,9.26-5.56v-.23c0-3.36-2.66-5.21-13.66-7.76-17.25-3.94-30.56-8.8-30.56-25.47V139c0-15,11.92-25.93,31.37-25.93,13.78,0,24.55,3.7,33.34,10.76l-11.23,15.86c-7.4-5.21-15.51-8-22.69-8-5.44,0-8.1,2.31-8.1,5.21v.23c0,3.7,2.78,5.32,14,7.87,18.64,4.05,30.21,10.07,30.21,25.24v.23c0,16.55-13.08,26.39-32.76,26.39C1106.1,196.83,1092.44,192.32,1082.48,183.4Z"/></g></svg>