<svg width="208" height="48" viewBox="0 0 208 48" fill="none" xmlns="http://www.w3.org/2000/svg">
<path d="M15.0731 29.9307C15.0804 29.9361 15.0858 29.9415 15.093 29.9487C15.1218 29.9885 15.1506 30.0265 15.1794 30.0662C15.1902 30.0807 15.201 30.0951 15.21 30.1096C15.174 30.0608 15.1272 30.0012 15.0731 29.9307Z" fill="black" fill-opacity="0.92"/>
<path d="M24.1369 37.0568C24.245 37.1183 24.3603 37.1779 24.4792 37.2303C24.544 37.2791 24.499 37.2719 24.1369 37.0568Z" fill="black" fill-opacity="0.92"/>
<path d="M41.6034 37.2159C41.7205 37.1815 41.8394 37.1364 41.9583 37.0821C42.1132 37.0442 42.1744 37.0496 41.6034 37.2159Z" fill="black" fill-opacity="0.92"/>
<path d="M33.5754 7.14249e-05C18.8503 0.0307954 5.71217 9.92031 0.677734 24.4654C4.68907 36.061 13.8375 44.6746 24.8178 47.7235C25.5095 46.9518 25.4933 46.0535 25.2105 45.2385C17.5372 43.1727 10.8745 37.899 6.95321 30.9807C5.93012 29.1734 6.58036 27.001 8.28072 25.9004C9.94685 24.8233 12.3875 25.5426 13.344 27.2324C13.8573 28.1378 14.4139 29.0144 15.0263 29.8566C15.0479 29.8873 15.0713 29.918 15.093 29.9487C15.1974 30.0373 15.3091 30.2271 15.3974 30.3355C15.7252 30.7349 16.0656 31.1253 16.4169 31.5048C17.0617 32.2006 17.7426 32.8621 18.4559 33.4856C18.6504 33.6555 18.8485 33.8236 19.0485 33.9862C19.0683 34.0025 19.2232 34.1236 19.3349 34.2122C19.2556 34.1543 19.189 34.1073 19.1565 34.0838C19.1763 34.1019 19.2178 34.1326 19.2808 34.1796C19.3745 34.2519 19.4267 34.2899 19.4465 34.3025C19.4357 34.2917 19.4177 34.2772 19.3925 34.2573C19.5402 34.364 19.7041 34.4832 19.7383 34.5085C19.8788 34.608 20.0193 34.7074 20.1634 34.8049C20.9127 35.3182 21.6909 35.7917 22.4906 36.2237C22.8346 36.4098 23.1823 36.5887 23.5353 36.7586C23.7713 36.8725 24.009 36.9791 24.2468 37.0912C24.3315 37.1309 24.4341 37.196 24.4792 37.2303C25.1708 37.5484 26.0012 37.7382 26.6965 37.9424C27.5088 38.1792 28.3302 38.3762 29.1606 38.5334C29.4253 38.584 29.6919 38.6238 29.9567 38.6707C29.9801 38.6744 30.0017 38.678 30.0215 38.6834C29.175 38.6039 30.7727 38.8226 30.0269 38.6834C30.0341 38.6834 30.0414 38.6852 30.0486 38.6852C30.4556 38.7232 30.8627 38.7683 31.2716 38.7955C32.1452 38.8551 33.0206 38.8714 33.896 38.8442C34.3967 38.828 34.8975 38.7973 35.3982 38.7539C35.6234 38.734 35.8467 38.7087 36.0719 38.6852C36.7527 38.6201 36.0088 38.7141 35.8971 38.7141C36.7149 38.7503 37.7218 38.3942 38.5107 38.1954C39.3627 37.9786 40.2039 37.7219 41.0288 37.4219C41.2756 37.3315 41.5188 37.2339 41.7637 37.1418C41.8214 37.1201 41.897 37.0984 41.9583 37.0821C42.2411 36.9592 42.5239 36.7984 42.7832 36.6701C43.5578 36.2869 44.3125 35.8658 45.0456 35.4104C45.4112 35.1827 45.7697 34.9459 46.1245 34.7001C46.301 34.5772 46.4758 34.4525 46.6487 34.326C46.6595 34.3188 46.6703 34.3097 46.6811 34.3007C46.6829 34.3007 46.6829 34.2989 46.6847 34.2989C46.8036 34.2049 46.9567 34.0567 46.9567 34.0495C46.9531 34.0495 46.9477 34.0549 46.9351 34.064C48.0861 32.9868 49.2929 32.0217 50.3358 30.8126C50.5934 30.5108 50.8888 30.2108 51.1121 29.8783C51.0635 29.956 51.0257 30.0138 51.0004 30.0572C51.1247 29.8728 51.4057 29.4409 51.4886 29.3198C51.9803 28.6095 52.4306 27.874 52.8521 27.1221C53.8644 25.313 56.1664 24.8612 57.9154 25.7884C59.7022 26.7372 60.1921 29.1752 59.2429 30.8687C56.9427 34.9748 53.7131 38.4394 49.8585 41.1124C47.2377 42.9305 44.3269 44.2716 41.2774 45.13C40.1048 46.1873 40.5335 47.2771 41.3981 48C52.8629 45.2276 62.4725 36.4225 66.6099 24.4654C61.552 9.85344 48.3364 -0.0306526 33.5754 7.14249e-05ZM33.6438 36.0574C27.2621 36.0574 22.0889 30.8668 22.0889 24.4654C22.0889 18.0622 27.2621 12.8716 33.6438 12.8716C40.0256 12.8716 45.1987 18.0622 45.1987 24.4654C45.1987 30.8668 40.0256 36.0574 33.6438 36.0574Z" fill="black" fill-opacity="0.92"/>
<path d="M24.1369 37.0568C24.245 37.1183 24.3603 37.1779 24.4792 37.2303C24.544 37.2791 24.499 37.2719 24.1369 37.0568Z" fill="black" fill-opacity="0.92"/>
<path d="M30.0215 38.6834C29.175 38.6039 30.7727 38.8226 30.0269 38.6834H30.0215Z" fill="black" fill-opacity="0.92"/>
<path d="M41.6034 37.2159C41.7205 37.1815 41.8394 37.1364 41.9583 37.0821C42.1132 37.0442 42.1744 37.0496 41.6034 37.2159Z" fill="black" fill-opacity="0.92"/>
<path d="M75.5278 11.0065H80.0524L83.3685 20.2761L86.6846 11.0065H91.1264L85.204 25.7576H81.4502L75.5278 11.0065Z" fill="black" fill-opacity="0.92"/>
<path d="M92.6268 11.0065H96.6922V25.6528H92.6268V11.0065Z" fill="black" fill-opacity="0.92"/>
<path d="M98.8627 18.3712V18.3297C98.8627 14.0608 102.199 10.7137 106.723 10.7137C109.288 10.7137 111.102 11.5089 112.646 12.8481L110.268 15.7145C109.225 14.8362 108.182 14.3337 106.745 14.3337C104.639 14.3337 103.013 16.1121 103.013 18.3513V18.3929C103.013 20.7568 104.661 22.4521 106.975 22.4521C107.955 22.4521 108.706 22.2424 109.312 21.8448V20.0665H106.433V17.0953H113.148V23.6865C111.605 24.9624 109.457 25.9456 106.81 25.9456C102.262 25.9456 98.8627 22.8081 98.8627 18.3712Z" fill="black" fill-opacity="0.92"/>
<path d="M115.483 11.0065H119.548V25.6528H115.483V11.0065Z" fill="black" fill-opacity="0.92"/>
<path d="M122.217 11.0065H126.263V22.0961H133.333V25.6528H122.217V11.0065Z" fill="black" fill-opacity="0.92"/>
<path d="M140.111 10.9017H144.01L150.225 25.6528H145.887L144.825 23.0377H139.192L138.149 25.6528H133.897L140.111 10.9017ZM143.656 19.8785L142.029 15.7145L140.381 19.8785H143.656Z" fill="black" fill-opacity="0.92"/>
<path d="M151.642 11.0065H155.416L161.421 18.7471V11.0065H165.425V25.6528H161.88L155.646 17.6176V25.6528H151.642V11.0065Z" fill="black" fill-opacity="0.92"/>
<path d="M171.578 14.5632H167.199V11.0065H180.003V14.5632H175.624V25.6528H171.578V14.5632Z" fill="black" fill-opacity="0.92"/>
<path d="M181.775 11.0065H193.515V14.4584H185.779V16.676H192.786V19.8767H185.779V22.1991H193.62V25.651H181.775V11.0065Z" fill="black" fill-opacity="0.92"/>
<path d="M194.58 23.4768L196.831 20.7785C198.271 21.9298 199.876 22.5352 201.565 22.5352C202.649 22.5352 203.233 22.1593 203.233 21.5304V21.4888C203.233 20.8815 202.754 20.5472 200.773 20.0863C197.665 19.3743 195.268 18.4959 195.268 15.4832V15.4416C195.268 12.7216 197.415 10.7553 200.918 10.7553C203.401 10.7553 205.339 11.4258 206.924 12.7017L204.901 15.5681C203.566 14.6265 202.107 14.1241 200.814 14.1241C199.834 14.1241 199.355 14.5434 199.355 15.0657V15.1072C199.355 15.7778 199.856 16.0705 201.878 16.5296C205.236 17.2615 207.322 18.3495 207.322 21.0912V21.1328C207.322 24.1238 204.966 25.904 201.421 25.904C198.833 25.904 196.372 25.0871 194.58 23.4768Z" fill="black" fill-opacity="0.92"/>
<path d="M81.8303 35.7357H81.1098V30.8813H81.8303V32.1482C81.9167 31.9476 82.0266 31.7633 82.1581 31.5934C82.2896 31.4253 82.4391 31.2789 82.6066 31.156C82.7741 31.0349 82.9596 30.941 83.1596 30.8795C83.3595 30.8162 83.5738 30.7891 83.8044 30.7946V31.5735H83.7486C83.4874 31.5735 83.2388 31.6205 83.0047 31.7145C82.7705 31.8085 82.567 31.9494 82.3922 32.1374C82.2175 32.3253 82.0806 32.5585 81.9798 32.8368C81.8807 33.1151 81.8303 33.4368 81.8303 33.8001V35.7357Z" fill="black" fill-opacity="0.92"/>
<path d="M85.321 34.2754C85.4201 34.4796 85.548 34.6513 85.7047 34.7923C85.8614 34.9333 86.0343 35.0399 86.2289 35.1122C86.4216 35.1845 86.6251 35.2206 86.8377 35.2206C87.1745 35.2206 87.4627 35.1574 87.7041 35.0327C87.9436 34.908 88.1634 34.7417 88.3633 34.5357L88.8118 34.9387C88.5686 35.2134 88.2913 35.4357 87.9796 35.6002C87.668 35.7664 87.2808 35.8496 86.8197 35.8496C86.4882 35.8496 86.1766 35.7881 85.883 35.667C85.5894 35.5441 85.3336 35.3724 85.1139 35.1501C84.8941 34.9278 84.7194 34.6604 84.5897 34.3477C84.46 34.035 84.3952 33.6898 84.3952 33.3157C84.3952 32.9651 84.4528 32.6344 84.5681 32.3253C84.6834 32.0163 84.8437 31.747 85.0509 31.5175C85.2562 31.2898 85.5012 31.109 85.7858 30.9771C86.0704 30.8452 86.3802 30.7801 86.717 30.7801C87.0718 30.7801 87.3906 30.847 87.6716 30.9825C87.9526 31.1181 88.1904 31.3006 88.3831 31.5319C88.5759 31.7633 88.7236 32.0362 88.8226 32.3488C88.9217 32.6615 88.9721 32.9958 88.9721 33.3537C88.9721 33.3844 88.9721 33.4188 88.9721 33.4567C88.9721 33.4947 88.9685 33.5344 88.9631 33.5778H85.1355C85.1589 33.8399 85.222 34.073 85.321 34.2754ZM88.2318 33.041C88.2138 32.8223 88.1688 32.6127 88.0967 32.4121C88.0247 32.2115 87.9256 32.0362 87.7995 31.8862C87.6716 31.7362 87.5167 31.6151 87.3348 31.5247C87.1511 31.4343 86.9385 31.3892 86.6972 31.3892C86.4864 31.3892 86.2919 31.4307 86.1118 31.5157C85.9317 31.6006 85.7731 31.7163 85.6381 31.8627C85.5012 32.0091 85.3895 32.1844 85.303 32.3832C85.2166 32.5838 85.1607 32.8025 85.1355 33.041H88.2318Z" fill="black" fill-opacity="0.92"/>
<path d="M94.1182 34.7598C94.0192 34.9043 93.9075 35.0417 93.7868 35.1736C93.6661 35.3056 93.5292 35.4212 93.3797 35.5206C93.2302 35.62 93.0627 35.6996 92.879 35.7556C92.6953 35.8116 92.4899 35.8405 92.2666 35.8405C91.973 35.8405 91.6902 35.7845 91.4146 35.6724C91.1408 35.5604 90.894 35.3959 90.6761 35.1791C90.4581 34.964 90.2834 34.6983 90.1519 34.3857C90.0204 34.073 89.9556 33.7151 89.9556 33.3157C89.9556 32.9163 90.0204 32.5585 90.1519 32.2458C90.2834 31.9332 90.4581 31.6675 90.6761 31.4524C90.894 31.2355 91.1408 31.0711 91.4146 30.9554C91.6884 30.8397 91.973 30.7819 92.2666 30.7819C92.4917 30.7819 92.6971 30.8108 92.8844 30.8668C93.0717 30.9229 93.2392 30.9988 93.3905 31.0928C93.5418 31.1867 93.6751 31.297 93.7976 31.4217C93.9183 31.5464 94.0264 31.6783 94.12 31.8157V28.8861H94.8405V35.7411H94.1182V34.7598ZM94.0012 32.5386C93.9039 32.3073 93.7742 32.1121 93.6085 31.9494C93.4428 31.7868 93.2554 31.6621 93.0465 31.5717C92.8376 31.4813 92.6214 31.4361 92.3963 31.4361C92.1585 31.4361 91.937 31.4777 91.7316 31.5627C91.5263 31.6458 91.3461 31.7687 91.193 31.9277C91.0399 32.0868 90.9193 32.282 90.8274 32.5169C90.7373 32.7501 90.6923 33.0139 90.6923 33.3067C90.6923 33.5941 90.7373 33.8525 90.8274 34.082C90.9174 34.3116 91.0417 34.5104 91.1966 34.6748C91.3533 34.8393 91.5335 34.9658 91.7388 35.0525C91.9442 35.1393 92.1639 35.1827 92.3945 35.1827C92.6196 35.1827 92.8358 35.1375 93.0447 35.0471C93.2536 34.9568 93.441 34.8302 93.6067 34.6694C93.7724 34.5085 93.9039 34.3097 93.9994 34.0766C94.0966 33.8435 94.1452 33.5868 94.1452 33.3049C94.1452 33.0248 94.0966 32.7681 94.0012 32.5386Z" fill="black" fill-opacity="0.92"/>
<path d="M103.139 34.7598C103.04 34.9043 102.928 35.0417 102.807 35.1736C102.685 35.3056 102.55 35.4212 102.4 35.5206C102.251 35.62 102.083 35.6996 101.9 35.7556C101.716 35.8116 101.51 35.8405 101.287 35.8405C100.994 35.8405 100.711 35.7845 100.435 35.6724C100.161 35.5604 99.9146 35.3959 99.6966 35.1791C99.4787 34.964 99.304 34.6983 99.1725 34.3857C99.041 34.073 98.9761 33.7151 98.9761 33.3157C98.9761 32.9163 99.041 32.5585 99.1725 32.2458C99.304 31.9332 99.4787 31.6675 99.6966 31.4524C99.9146 31.2355 100.161 31.0711 100.435 30.9554C100.709 30.8397 100.994 30.7819 101.287 30.7819C101.512 30.7819 101.718 30.8108 101.905 30.8668C102.092 30.9229 102.26 30.9988 102.411 31.0928C102.561 31.1867 102.696 31.297 102.818 31.4217C102.941 31.5464 103.047 31.6783 103.141 31.8157V28.8861H103.861V35.7411H103.139V34.7598ZM103.022 32.5386C102.924 32.3073 102.795 32.1121 102.629 31.9494C102.463 31.7868 102.276 31.6621 102.067 31.5717C101.858 31.4813 101.642 31.4361 101.417 31.4361C101.179 31.4361 100.958 31.4777 100.752 31.5627C100.547 31.6458 100.367 31.7687 100.214 31.9277C100.06 32.0868 99.938 32.282 99.8479 32.5169C99.7579 32.7501 99.7129 33.0139 99.7129 33.3067C99.7129 33.5941 99.7579 33.8525 99.8479 34.082C99.938 34.3134 100.062 34.5104 100.217 34.6748C100.374 34.8393 100.554 34.9658 100.759 35.0525C100.965 35.1393 101.184 35.1827 101.415 35.1827C101.64 35.1827 101.856 35.1375 102.065 35.0471C102.274 34.9568 102.462 34.8302 102.627 34.6694C102.793 34.5067 102.923 34.3097 103.02 34.0766C103.117 33.8435 103.166 33.5868 103.166 33.3049C103.168 33.0248 103.119 32.7681 103.022 32.5386Z" fill="black" fill-opacity="0.92"/>
<path d="M106.096 34.2754C106.195 34.4796 106.323 34.6513 106.48 34.7923C106.637 34.9333 106.811 35.0399 107.004 35.1122C107.197 35.1845 107.4 35.2206 107.613 35.2206C107.95 35.2206 108.238 35.1574 108.479 35.0327C108.719 34.908 108.939 34.7417 109.139 34.5357L109.587 34.9387C109.344 35.2134 109.067 35.4357 108.755 35.6002C108.443 35.7664 108.056 35.8496 107.595 35.8496C107.264 35.8496 106.952 35.7881 106.658 35.667C106.365 35.5441 106.109 35.3724 105.889 35.1501C105.67 34.9278 105.495 34.6604 105.365 34.3477C105.235 34.035 105.171 33.6898 105.171 33.3157C105.171 32.9651 105.228 32.6344 105.343 32.3253C105.459 32.0163 105.619 31.747 105.826 31.5175C106.032 31.2898 106.277 31.109 106.561 30.9771C106.846 30.8452 107.156 30.7801 107.492 30.7801C107.847 30.7801 108.166 30.847 108.447 30.9825C108.728 31.1181 108.964 31.3006 109.158 31.5319C109.351 31.7633 109.499 32.0362 109.598 32.3488C109.697 32.6615 109.747 32.9958 109.747 33.3537C109.747 33.3844 109.747 33.4188 109.747 33.4567C109.747 33.4947 109.744 33.5344 109.738 33.5778H105.911C105.934 33.8399 105.997 34.073 106.096 34.2754ZM109.007 33.041C108.989 32.8223 108.944 32.6127 108.872 32.4121C108.8 32.2115 108.701 32.0362 108.575 31.8862C108.447 31.7362 108.292 31.6151 108.11 31.5247C107.926 31.4343 107.714 31.3892 107.473 31.3892C107.262 31.3892 107.067 31.4307 106.887 31.5157C106.707 31.6006 106.549 31.7163 106.413 31.8627C106.277 32.0091 106.165 32.1844 106.078 32.3832C105.992 32.5838 105.936 32.8025 105.911 33.041H109.007Z" fill="black" fill-opacity="0.92"/>
<path d="M117.401 30.8813H118.177L116.072 35.7737H115.436L113.339 30.8813H114.135L115.764 34.9098L117.401 30.8813Z" fill="black" fill-opacity="0.92"/>
<path d="M119.328 29.8204V29.0216H120.151V29.8204H119.328ZM119.375 35.7357V30.8813H120.096V35.7357H119.375Z" fill="black" fill-opacity="0.92"/>
<path d="M126.202 35.9237C126.086 36.2183 125.921 36.464 125.706 36.661C125.49 36.858 125.233 37.0062 124.93 37.1074C124.627 37.2068 124.289 37.2574 123.914 37.2574C123.509 37.2574 123.122 37.2014 122.754 37.0876C122.387 36.9755 122.039 36.8056 121.715 36.5797L122.043 36.0158C122.324 36.2164 122.617 36.3701 122.922 36.4767C123.228 36.5833 123.554 36.6357 123.905 36.6357C124.442 36.6357 124.869 36.4911 125.188 36.1984C125.506 35.9074 125.665 35.4773 125.665 34.908V34.335C125.452 34.617 125.193 34.8574 124.889 35.058C124.582 35.2586 124.208 35.358 123.766 35.358C123.473 35.358 123.19 35.3056 122.92 35.2025C122.65 35.0995 122.407 34.9495 122.194 34.7525C121.981 34.5555 121.812 34.3152 121.684 34.035C121.556 33.7549 121.493 33.4332 121.493 33.0772C121.493 32.7211 121.556 32.3994 121.684 32.1139C121.812 31.8283 121.981 31.588 122.194 31.391C122.407 31.194 122.65 31.0422 122.923 30.9355C123.197 30.8289 123.478 30.7765 123.766 30.7765C123.992 30.7765 124.199 30.8036 124.39 30.856C124.581 30.9084 124.752 30.9789 124.905 31.0675C125.058 31.156 125.197 31.259 125.321 31.3765C125.445 31.4958 125.559 31.6205 125.658 31.7524V30.8795H126.378V34.8899C126.376 35.2857 126.319 35.6291 126.202 35.9237ZM125.533 32.3886C125.434 32.1844 125.301 32.0109 125.135 31.8681C124.97 31.7235 124.781 31.6133 124.57 31.5356C124.357 31.4578 124.136 31.4181 123.905 31.4181C123.675 31.4181 123.457 31.456 123.255 31.5301C123.053 31.6042 122.875 31.7145 122.722 31.8591C122.569 32.0036 122.448 32.1771 122.361 32.3796C122.273 32.5838 122.23 32.8097 122.23 33.0609C122.23 33.3121 122.275 33.538 122.365 33.7423C122.455 33.9465 122.578 34.1218 122.731 34.2682C122.884 34.4146 123.062 34.5284 123.264 34.6061C123.467 34.6839 123.68 34.7236 123.905 34.7236C124.136 34.7236 124.357 34.6839 124.57 34.6061C124.782 34.5284 124.971 34.4164 125.135 34.2736C125.301 34.129 125.433 33.9555 125.533 33.7531C125.634 33.5507 125.683 33.323 125.683 33.0718C125.683 32.8187 125.633 32.5928 125.533 32.3886Z" fill="black" fill-opacity="0.92"/>
<path d="M128.005 29.8204V29.0216H128.828V29.8204H128.005ZM128.052 35.7357V30.8813H128.772V35.7357H128.052Z" fill="black" fill-opacity="0.92"/>
<path d="M130.512 35.7357V28.8806H131.233V35.7357H130.512Z" fill="black" fill-opacity="0.92"/>
<path d="M133.877 31.5536C133.643 31.6187 133.414 31.7054 133.189 31.8121L132.974 31.2211C133.243 31.0964 133.515 30.997 133.788 30.9247C134.062 30.8524 134.377 30.8162 134.734 30.8162C135.395 30.8162 135.903 30.9807 136.26 31.3096C136.616 31.6386 136.793 32.1247 136.793 32.7699V35.7375H136.099V35.0056C135.932 35.2242 135.705 35.4194 135.42 35.5875C135.136 35.7556 134.779 35.8405 134.349 35.8405C134.124 35.8405 133.904 35.8098 133.689 35.7465C133.473 35.6833 133.281 35.5893 133.109 35.461C132.938 35.3327 132.801 35.1754 132.697 34.9875C132.592 34.7995 132.542 34.5772 132.542 34.3206C132.542 34.064 132.592 33.8362 132.692 33.6392C132.791 33.4422 132.933 33.2778 133.117 33.1458C133.3 33.0139 133.518 32.9145 133.772 32.8458C134.024 32.7772 134.304 32.7428 134.61 32.7428C134.921 32.7428 135.193 32.7609 135.424 32.7988C135.655 32.8368 135.88 32.8874 136.098 32.9489V32.779C136.098 32.3416 135.972 32.0109 135.719 31.7886C135.467 31.5663 135.112 31.456 134.657 31.456C134.37 31.4542 134.111 31.4868 133.877 31.5536ZM133.646 33.5489C133.403 33.7296 133.282 33.9772 133.282 34.2899C133.282 34.4471 133.315 34.5845 133.38 34.7037C133.444 34.823 133.533 34.9242 133.646 35.0092C133.758 35.0941 133.888 35.1574 134.033 35.2007C134.179 35.2441 134.334 35.2658 134.495 35.2658C134.718 35.2658 134.929 35.2333 135.125 35.1664C135.321 35.1013 135.492 35.0092 135.638 34.8935C135.784 34.7778 135.9 34.6405 135.984 34.4796C136.069 34.3206 136.11 34.1435 136.11 33.9483V33.4784C135.93 33.4278 135.723 33.3808 135.491 33.3374C135.258 33.294 134.992 33.2724 134.693 33.2724C134.237 33.276 133.888 33.3663 133.646 33.5489Z" fill="black" fill-opacity="0.92"/>
<path d="M139.046 35.7357H138.326V30.8813H139.046V31.7271C139.208 31.4651 139.421 31.241 139.682 31.0566C139.943 30.8723 140.284 30.7801 140.702 30.7801C140.995 30.7801 141.255 30.8271 141.483 30.9211C141.712 31.015 141.905 31.1488 142.063 31.3205C142.222 31.4922 142.344 31.6982 142.429 31.935C142.514 32.1717 142.555 32.4356 142.555 32.7229V35.7375H141.835V32.9019C141.835 32.4519 141.719 32.094 141.489 31.8319C141.258 31.5681 140.927 31.438 140.496 31.438C140.291 31.438 140.098 31.4741 139.92 31.5464C139.742 31.6187 139.588 31.7217 139.457 31.8554C139.325 31.9892 139.225 32.1518 139.153 32.338C139.08 32.5259 139.044 32.732 139.044 32.9579V35.7357H139.046Z" fill="black" fill-opacity="0.92"/>
<path d="M147.418 35.5821C147.11 35.7592 146.727 35.8496 146.273 35.8496C145.918 35.8496 145.588 35.7827 145.286 35.6471C144.983 35.5116 144.72 35.3309 144.5 35.1031C144.279 34.8754 144.106 34.6061 143.982 34.3007C143.857 33.9935 143.794 33.6682 143.794 33.3248C143.794 32.9814 143.857 32.6543 143.982 32.3434C144.106 32.0344 144.279 31.7633 144.5 31.5319C144.722 31.3006 144.983 31.1181 145.286 30.9825C145.588 30.847 145.918 30.7801 146.273 30.7801C146.503 30.7801 146.712 30.8018 146.9 30.8452C147.087 30.8885 147.258 30.95 147.415 31.0277C147.571 31.1054 147.714 31.1976 147.845 31.3042C147.977 31.4108 148.097 31.5229 148.211 31.6422L147.734 32.15C147.541 31.9494 147.33 31.7777 147.101 31.6331C146.874 31.4886 146.595 31.4181 146.264 31.4181C146.021 31.4181 145.792 31.4669 145.581 31.5627C145.369 31.6603 145.185 31.794 145.028 31.9657C144.871 32.1374 144.751 32.338 144.662 32.5657C144.574 32.7934 144.531 33.0392 144.531 33.3013C144.531 33.5633 144.576 33.8109 144.666 34.0405C144.756 34.27 144.882 34.4724 145.041 34.6441C145.199 34.8158 145.387 34.9495 145.603 35.0471C145.817 35.1447 146.053 35.1917 146.309 35.1917C146.62 35.1917 146.896 35.123 147.137 34.9857C147.377 34.8483 147.595 34.6766 147.788 34.4688L148.247 34.9007C148.002 35.1772 147.726 35.405 147.418 35.5821Z" fill="black" fill-opacity="0.92"/>
<path d="M149.454 29.8204V29.0216H150.277V29.8204H149.454ZM149.501 35.7357V30.8813H150.221V35.7357H149.501Z" fill="black" fill-opacity="0.92"/>
<path d="M152.865 31.5536C152.631 31.6187 152.402 31.7054 152.177 31.8121L151.963 31.2211C152.231 31.0964 152.503 30.997 152.777 30.9247C153.051 30.8524 153.366 30.8162 153.723 30.8162C154.384 30.8162 154.892 30.9807 155.248 31.3096C155.605 31.6386 155.781 32.1247 155.781 32.7699V35.7375H155.088V35.0056C154.92 35.2242 154.694 35.4194 154.409 35.5875C154.124 35.7556 153.768 35.8405 153.337 35.8405C153.112 35.8405 152.892 35.8098 152.678 35.7465C152.462 35.6833 152.269 35.5893 152.098 35.461C151.927 35.3327 151.79 35.1754 151.685 34.9875C151.581 34.7995 151.531 34.5772 151.531 34.3206C151.531 34.064 151.581 33.8362 151.68 33.6392C151.779 33.4422 151.921 33.2778 152.105 33.1458C152.289 33.0139 152.507 32.9145 152.761 32.8458C153.013 32.7772 153.292 32.7428 153.598 32.7428C153.91 32.7428 154.182 32.7609 154.413 32.7988C154.643 32.8368 154.868 32.8874 155.086 32.9489V32.779C155.086 32.3416 154.96 32.0109 154.708 31.7886C154.456 31.5663 154.101 31.456 153.645 31.456C153.359 31.4542 153.098 31.4868 152.865 31.5536ZM152.635 33.5489C152.392 33.7296 152.271 33.9772 152.271 34.2899C152.271 34.4471 152.303 34.5845 152.368 34.7037C152.433 34.823 152.521 34.9242 152.635 35.0092C152.746 35.0941 152.876 35.1574 153.022 35.2007C153.168 35.2441 153.323 35.2658 153.483 35.2658C153.706 35.2658 153.917 35.2333 154.114 35.1664C154.31 35.1013 154.481 35.0092 154.627 34.8935C154.773 34.7778 154.888 34.6405 154.973 34.4796C155.057 34.3206 155.099 34.1435 155.099 33.9483V33.4784C154.919 33.4278 154.712 33.3808 154.479 33.3374C154.247 33.294 153.98 33.2724 153.681 33.2724C153.226 33.276 152.876 33.3663 152.635 33.5489Z" fill="black" fill-opacity="0.92"/>
<path d="M163.449 35.5821C163.141 35.7592 162.758 35.8496 162.304 35.8496C161.949 35.8496 161.619 35.7827 161.317 35.6471C161.014 35.5116 160.753 35.3309 160.531 35.1031C160.31 34.8754 160.137 34.6061 160.013 34.3007C159.888 33.9935 159.825 33.6682 159.825 33.3248C159.825 32.9814 159.888 32.6543 160.013 32.3434C160.137 32.0344 160.31 31.7633 160.531 31.5319C160.753 31.3006 161.014 31.1181 161.317 30.9825C161.619 30.847 161.949 30.7801 162.304 30.7801C162.534 30.7801 162.743 30.8018 162.931 30.8452C163.118 30.8885 163.289 30.95 163.446 31.0277C163.602 31.1054 163.745 31.1976 163.876 31.3042C164.008 31.4108 164.128 31.5229 164.242 31.6422L163.765 32.15C163.572 31.9494 163.361 31.7777 163.132 31.6331C162.904 31.4886 162.624 31.4181 162.295 31.4181C162.052 31.4181 161.823 31.4669 161.612 31.5627C161.399 31.6603 161.216 31.794 161.059 31.9657C160.902 32.1374 160.782 32.338 160.693 32.5657C160.605 32.7934 160.562 33.0392 160.562 33.3013C160.562 33.5633 160.607 33.8109 160.697 34.0405C160.787 34.2718 160.911 34.4724 161.072 34.6441C161.23 34.8158 161.418 34.9495 161.634 35.0471C161.85 35.1447 162.084 35.1917 162.34 35.1917C162.651 35.1917 162.927 35.123 163.168 34.9857C163.41 34.8483 163.626 34.6766 163.819 34.4688L164.278 34.9007C164.033 35.1772 163.757 35.405 163.449 35.5821Z" fill="black" fill-opacity="0.92"/>
<path d="M168.9 30.8813H169.611V35.7357H168.9V34.8899C168.738 35.1519 168.525 35.376 168.264 35.5604C168.003 35.7447 167.662 35.8369 167.244 35.8369C166.951 35.8369 166.692 35.7899 166.463 35.6959C166.236 35.602 166.041 35.47 165.883 35.2965C165.724 35.1248 165.602 34.9188 165.517 34.682C165.432 34.4435 165.391 34.1814 165.391 33.8941V30.8795H166.112V33.7151C166.112 34.1652 166.227 34.523 166.457 34.7851C166.688 35.0489 167.019 35.1791 167.45 35.1791C167.655 35.1791 167.848 35.1429 168.026 35.0706C168.205 34.9983 168.356 34.8953 168.486 34.7616C168.613 34.6278 168.714 34.4652 168.79 34.279C168.866 34.0911 168.902 33.885 168.902 33.6591V30.8813H168.9Z" fill="black" fill-opacity="0.92"/>
<path d="M171.249 29.8204V29.0216H172.072V29.8204H171.249ZM171.295 35.7357V30.8813H172.016V35.7357H171.295Z" fill="black" fill-opacity="0.92"/>
<path d="M177.575 34.7598C177.475 34.9043 177.364 35.0417 177.243 35.1736C177.121 35.3056 176.986 35.4212 176.836 35.5206C176.687 35.62 176.519 35.6996 176.335 35.7556C176.152 35.8116 175.946 35.8405 175.723 35.8405C175.429 35.8405 175.146 35.7845 174.871 35.6724C174.597 35.5604 174.35 35.3959 174.132 35.1791C173.914 34.964 173.74 34.6983 173.608 34.3857C173.477 34.073 173.412 33.7151 173.412 33.3157C173.412 32.9163 173.477 32.5585 173.608 32.2458C173.74 31.9332 173.914 31.6675 174.132 31.4524C174.35 31.2355 174.597 31.0711 174.871 30.9554C175.145 30.8397 175.429 30.7819 175.723 30.7819C175.948 30.7819 176.153 30.8108 176.341 30.8668C176.528 30.9229 176.696 30.9988 176.847 31.0928C176.996 31.1867 177.131 31.297 177.254 31.4217C177.376 31.5464 177.483 31.6783 177.576 31.8157V28.8861H178.297V35.7411H177.575V34.7598ZM177.457 32.5386C177.36 32.3073 177.23 32.1121 177.065 31.9494C176.899 31.7868 176.712 31.6621 176.503 31.5717C176.294 31.4813 176.078 31.4361 175.853 31.4361C175.615 31.4361 175.393 31.4777 175.188 31.5627C174.983 31.6458 174.802 31.7687 174.649 31.9277C174.496 32.0868 174.374 32.282 174.284 32.5169C174.194 32.7501 174.149 33.0139 174.149 33.3067C174.149 33.5941 174.194 33.8525 174.284 34.082C174.374 34.3134 174.498 34.5104 174.653 34.6748C174.81 34.8393 174.99 34.9658 175.195 35.0525C175.4 35.1393 175.62 35.1827 175.851 35.1827C176.076 35.1827 176.292 35.1375 176.501 35.0471C176.71 34.9568 176.897 34.8302 177.063 34.6694C177.229 34.5067 177.358 34.3097 177.456 34.0766C177.553 33.8435 177.602 33.5868 177.602 33.3049C177.603 33.0248 177.555 32.7681 177.457 32.5386Z" fill="black" fill-opacity="0.92"/>
<path d="M180.874 31.5536C180.64 31.6187 180.411 31.7054 180.186 31.8121L179.972 31.2211C180.24 31.0964 180.512 30.997 180.786 30.9247C181.06 30.8524 181.375 30.8162 181.732 30.8162C182.393 30.8162 182.901 30.9807 183.257 31.3096C183.614 31.6386 183.791 32.1247 183.791 32.7699V35.7375H183.097V35.0056C182.93 35.2242 182.703 35.4194 182.418 35.5875C182.133 35.7556 181.777 35.8405 181.346 35.8405C181.121 35.8405 180.901 35.8098 180.687 35.7465C180.471 35.6833 180.278 35.5893 180.107 35.461C179.936 35.3327 179.799 35.1754 179.695 34.9875C179.59 34.7995 179.54 34.5772 179.54 34.3206C179.54 34.064 179.59 33.8362 179.689 33.6392C179.788 33.4422 179.931 33.2778 180.114 33.1458C180.298 33.0139 180.516 32.9145 180.77 32.8458C181.022 32.7772 181.301 32.7428 181.607 32.7428C181.919 32.7428 182.191 32.7609 182.422 32.7988C182.652 32.8368 182.877 32.8874 183.095 32.9489V32.779C183.095 32.3416 182.969 32.0109 182.717 31.7886C182.465 31.5663 182.11 31.456 181.654 31.456C181.368 31.4542 181.109 31.4868 180.874 31.5536ZM180.644 33.5489C180.401 33.7296 180.28 33.9772 180.28 34.2899C180.28 34.4471 180.312 34.5845 180.377 34.7037C180.442 34.823 180.53 34.9242 180.644 35.0092C180.755 35.0941 180.885 35.1574 181.031 35.2007C181.177 35.2441 181.332 35.2658 181.492 35.2658C181.716 35.2658 181.926 35.2333 182.123 35.1664C182.319 35.1013 182.49 35.0092 182.636 34.8935C182.782 34.7778 182.897 34.6405 182.982 34.4796C183.066 34.3206 183.108 34.1435 183.108 33.9483V33.4784C182.928 33.4278 182.721 33.3808 182.488 33.3374C182.256 33.294 181.989 33.2724 181.69 33.2724C181.235 33.276 180.885 33.3663 180.644 33.5489Z" fill="black" fill-opacity="0.92"/>
<path d="M189.207 34.7598C189.108 34.9043 188.996 35.0417 188.875 35.1736C188.755 35.3056 188.618 35.4212 188.468 35.5206C188.319 35.62 188.151 35.6996 187.968 35.7556C187.784 35.8116 187.579 35.8405 187.355 35.8405C187.062 35.8405 186.779 35.7845 186.503 35.6724C186.229 35.5604 185.983 35.3959 185.765 35.1791C185.547 34.964 185.372 34.6983 185.241 34.3857C185.109 34.073 185.044 33.7151 185.044 33.3157C185.044 32.9163 185.109 32.5585 185.241 32.2458C185.372 31.9332 185.547 31.6675 185.765 31.4524C185.983 31.2355 186.229 31.0711 186.503 30.9554C186.777 30.8397 187.062 30.7819 187.355 30.7819C187.58 30.7819 187.786 30.8108 187.973 30.8668C188.16 30.9229 188.328 30.9988 188.479 31.0928C188.63 31.1867 188.764 31.297 188.886 31.4217C189.007 31.5464 189.115 31.6783 189.209 31.8157V28.8861H189.929V35.7411H189.207V34.7598ZM189.09 32.5386C188.993 32.3073 188.863 32.1121 188.697 31.9494C188.531 31.7868 188.344 31.6621 188.135 31.5717C187.926 31.4813 187.71 31.4361 187.485 31.4361C187.247 31.4361 187.026 31.4777 186.82 31.5627C186.615 31.6458 186.435 31.7687 186.282 31.9277C186.129 32.0868 186.008 32.282 185.916 32.5169C185.826 32.7501 185.781 33.0139 185.781 33.3067C185.781 33.5941 185.826 33.8525 185.916 34.082C186.006 34.3116 186.13 34.5104 186.285 34.6748C186.442 34.8393 186.622 34.9658 186.827 35.0525C187.033 35.1393 187.253 35.1827 187.483 35.1827C187.708 35.1827 187.924 35.1375 188.133 35.0471C188.342 34.9568 188.53 34.8302 188.695 34.6694C188.861 34.5085 188.993 34.3097 189.088 34.0766C189.185 33.8435 189.234 33.5868 189.234 33.3049C189.236 33.0248 189.187 32.7681 189.09 32.5386Z" fill="black" fill-opacity="0.92"/>
<path d="M192.507 31.5536C192.273 31.6187 192.044 31.7054 191.819 31.8121L191.602 31.2211C191.871 31.0964 192.143 30.997 192.417 30.9247C192.69 30.8524 193.006 30.8162 193.362 30.8162C194.023 30.8162 194.533 30.9807 194.888 31.3096C195.243 31.6386 195.421 32.1247 195.421 32.7699V35.7375H194.729V35.0056C194.56 35.2242 194.335 35.4194 194.05 35.5875C193.766 35.7556 193.409 35.8405 192.979 35.8405C192.753 35.8405 192.534 35.8098 192.319 35.7465C192.105 35.6833 191.91 35.5893 191.739 35.461C191.568 35.3327 191.431 35.1754 191.327 34.9875C191.224 34.7995 191.172 34.5772 191.172 34.3206C191.172 34.064 191.222 33.8362 191.322 33.6392C191.421 33.4422 191.563 33.2778 191.747 33.1458C191.93 33.0139 192.148 32.9145 192.402 32.8458C192.654 32.7772 192.934 32.7428 193.24 32.7428C193.551 32.7428 193.823 32.7609 194.054 32.7988C194.285 32.8368 194.51 32.8874 194.728 32.9489V32.779C194.728 32.3416 194.602 32.0109 194.349 31.7886C194.097 31.5663 193.742 31.456 193.287 31.456C193 31.4542 192.741 31.4868 192.507 31.5536ZM192.276 33.5489C192.033 33.7296 191.912 33.9772 191.912 34.2899C191.912 34.4471 191.945 34.5845 192.01 34.7037C192.074 34.823 192.163 34.9242 192.276 35.0092C192.388 35.0941 192.518 35.1574 192.663 35.2007C192.809 35.2441 192.964 35.2658 193.125 35.2658C193.348 35.2658 193.559 35.2333 193.755 35.1664C193.951 35.1013 194.122 35.0092 194.268 34.8935C194.414 34.7778 194.529 34.6405 194.614 34.4796C194.699 34.3206 194.74 34.1435 194.74 33.9483V33.4784C194.56 33.4278 194.353 33.3808 194.121 33.3374C193.888 33.294 193.622 33.2724 193.323 33.2724C192.867 33.276 192.518 33.3663 192.276 33.5489Z" fill="black" fill-opacity="0.92"/>
<path d="M197.676 35.7357H196.956V30.8813H197.676V31.7271C197.838 31.4651 198.051 31.241 198.312 31.0566C198.573 30.8723 198.914 30.7801 199.332 30.7801C199.625 30.7801 199.885 30.8271 200.113 30.9211C200.342 31.015 200.535 31.1488 200.693 31.3205C200.852 31.4922 200.974 31.6982 201.059 31.935C201.144 32.1717 201.185 32.4356 201.185 32.7229V35.7375H200.465V32.9019C200.465 32.4519 200.349 32.094 200.119 31.8319C199.888 31.5681 199.557 31.438 199.126 31.438C198.921 31.438 198.728 31.4741 198.55 31.5464C198.372 31.6187 198.218 31.7217 198.087 31.8554C197.955 31.9892 197.855 32.1518 197.783 32.338C197.71 32.5259 197.674 32.732 197.674 32.9579V35.7357H197.676Z" fill="black" fill-opacity="0.92"/>
<path d="M203.691 31.5536C203.456 31.6187 203.228 31.7054 203.002 31.8121L202.788 31.2211C203.056 31.0964 203.328 30.997 203.602 30.9247C203.876 30.8524 204.191 30.8162 204.548 30.8162C205.209 30.8162 205.717 30.9807 206.074 31.3096C206.43 31.6386 206.607 32.1247 206.607 32.7699V35.7375H205.913V35.0056C205.746 35.2242 205.519 35.4194 205.234 35.5875C204.95 35.7556 204.593 35.8405 204.162 35.8405C203.937 35.8405 203.718 35.8098 203.503 35.7465C203.287 35.6833 203.094 35.5893 202.923 35.461C202.752 35.3327 202.615 35.1754 202.511 34.9875C202.406 34.7995 202.356 34.5772 202.356 34.3206C202.356 34.064 202.406 33.8362 202.505 33.6392C202.604 33.4422 202.747 33.2778 202.93 33.1458C203.114 33.0139 203.332 32.9145 203.586 32.8458C203.838 32.7772 204.117 32.7428 204.424 32.7428C204.735 32.7428 205.007 32.7609 205.238 32.7988C205.468 32.8368 205.693 32.8874 205.911 32.9489V32.779C205.911 32.3416 205.785 32.0109 205.533 31.7886C205.281 31.5663 204.926 31.456 204.47 31.456C204.184 31.4542 203.923 31.4868 203.691 31.5536ZM203.46 33.5489C203.217 33.7296 203.096 33.9772 203.096 34.2899C203.096 34.4471 203.129 34.5845 203.193 34.7037C203.258 34.823 203.347 34.9242 203.46 35.0092C203.572 35.0941 203.701 35.1574 203.847 35.2007C203.993 35.2441 204.148 35.2658 204.308 35.2658C204.532 35.2658 204.742 35.2333 204.939 35.1664C205.135 35.1013 205.306 35.0092 205.452 34.8935C205.598 34.7778 205.713 34.6405 205.798 34.4796C205.883 34.3206 205.924 34.1435 205.924 33.9483V33.4784C205.744 33.4278 205.537 33.3808 205.304 33.3374C205.072 33.294 204.805 33.2724 204.506 33.2724C204.051 33.276 203.701 33.3663 203.46 33.5489Z" fill="black" fill-opacity="0.92"/>
</svg>
