<svg width="128" height="128" viewBox="0 0 128 128" fill="none" xmlns="http://www.w3.org/2000/svg">
<rect width="128" height="128" fill="white"/>
<path d="M44.9343 81.704C43.6463 81.2 42.0223 80.472 40.8463 79.632V47.88H47.1183C52.0463 47.88 54.0063 51.128 54.0063 55.552C54.0063 60.648 51.4303 64.904 44.7663 64.904H42.3583V67.48H44.5983C53.1663 67.48 60.7263 62.608 60.7263 54.712C60.7263 47.376 56.1903 44.8 47.5103 44.8H30.7103L30.0383 47.096C31.2703 47.544 33.0063 48.328 34.1263 49.112V79.688C33.0063 80.472 31.2703 81.256 30.0383 81.704L30.7103 84C32.8383 83.888 34.9663 83.832 37.4863 83.832C39.8383 83.832 42.0783 83.888 44.1503 84L44.9343 81.704ZM95.5531 76.608L95.3291 76.496C92.6971 78.624 89.1131 79.688 85.6411 79.688C77.0171 79.688 71.6971 72.688 71.6971 61.096C71.6971 52.584 75.0571 47.32 82.5051 47.32C84.8571 47.32 87.1531 47.768 89.2251 48.608L91.9131 56.112H94.2091C94.4331 52.584 94.9931 49.28 95.8331 46.256L95.6091 45.696C92.6971 44.688 88.0491 44.128 83.2331 44.128C71.6971 44.128 64.8651 52.864 64.8651 64.568C64.8651 77.672 72.4251 84.672 83.1771 84.672C88.6651 84.672 93.8731 82.32 96.2251 79.072L95.5531 76.608Z" fill="black"/>
</svg>
