<svg width="128" height="128" viewBox="0 0 128 128" fill="none" xmlns="http://www.w3.org/2000/svg">
<rect width="128" height="128" fill="white"/>
<path d="M36.5955 72.896C36.6063 72.9041 36.6144 72.9123 36.6252 72.9231C36.6684 72.9828 36.7117 73.0397 36.7549 73.0993C36.7711 73.121 36.7873 73.1427 36.8008 73.1644C36.7468 73.0912 36.6765 73.0017 36.5955 72.896Z" fill="black" fill-opacity="0.92"/>
<path d="M50.1926 83.5852C50.3548 83.6774 50.5277 83.7669 50.706 83.8455C50.8033 83.9187 50.7358 83.9078 50.1926 83.5852Z" fill="black" fill-opacity="0.92"/>
<path d="M76.3953 83.8238C76.5709 83.7723 76.7492 83.7045 76.9276 83.6232C77.16 83.5663 77.2518 83.5744 76.3953 83.8238Z" fill="black" fill-opacity="0.92"/>
<path d="M64.3518 28.0001C42.2619 28.0462 22.5525 42.8805 15 64.6981C21.0177 82.0915 34.7418 95.0119 51.214 99.5852C52.2517 98.4277 52.2273 97.0803 51.8031 95.8577C40.292 92.7591 30.2968 84.8485 24.4142 74.4711C22.8794 71.7601 23.8549 68.5016 26.4057 66.8506C28.9052 65.2349 32.5666 66.3138 34.0014 68.8486C34.7715 70.2068 35.6065 71.5216 36.5252 72.7849C36.5577 72.8309 36.5928 72.877 36.6252 72.9231C36.7819 73.056 36.9495 73.3406 37.0819 73.5033C37.5737 74.1024 38.0844 74.6879 38.6113 75.2572C39.5786 76.301 40.6 77.2932 41.6701 78.2284C41.9619 78.4833 42.2592 78.7354 42.5591 78.9794C42.5888 79.0038 42.8212 79.1854 42.9887 79.3182C42.8698 79.2315 42.7699 79.161 42.7212 79.1258C42.7509 79.1529 42.8131 79.1989 42.9077 79.2694C43.0482 79.3779 43.1265 79.4348 43.1563 79.4538C43.1401 79.4375 43.113 79.4158 43.0752 79.386C43.2968 79.5459 43.5427 79.7249 43.594 79.7628C43.8048 79.9119 44.0155 80.061 44.2317 80.2074C45.3558 80.9773 46.5231 81.6876 47.7229 82.3355C48.239 82.6147 48.7605 82.8831 49.2901 83.1379C49.6441 83.3087 50.0008 83.4687 50.3575 83.6368C50.4845 83.6964 50.6385 83.794 50.706 83.8455C51.7437 84.3226 52.9893 84.6073 54.0324 84.9136C55.251 85.2687 56.4832 85.5642 57.7289 85.8001C58.1261 85.876 58.526 85.9356 58.9232 86.0061C58.9584 86.0115 58.9908 86.017 59.0205 86.0251C57.7505 85.9058 60.1473 86.2338 59.0286 86.0251C59.0394 86.0251 59.0502 86.0278 59.0611 86.0278C59.6717 86.0847 60.2824 86.1525 60.8958 86.1932C62.2063 86.2826 63.5196 86.307 64.8328 86.2664C65.584 86.242 66.3352 86.1959 67.0864 86.1308C67.4242 86.101 67.7592 86.0631 68.097 86.0278C69.1184 85.9302 68.0024 86.0712 67.8349 86.0712C69.0617 86.1254 70.5722 85.5913 71.7557 85.2931C73.0338 84.9678 74.2957 84.5829 75.5333 84.1329C75.9035 83.9973 76.2683 83.8509 76.6358 83.7127C76.7222 83.6801 76.8357 83.6476 76.9276 83.6232C77.3518 83.4389 77.7761 83.1976 78.1652 83.0051C79.3271 82.4304 80.4593 81.7987 81.559 81.1156C82.1076 80.774 82.6453 80.4189 83.1776 80.0502C83.4424 79.8658 83.7045 79.6788 83.9639 79.489C83.9802 79.4782 83.9964 79.4646 84.0126 79.4511C84.0153 79.4511 84.0153 79.4484 84.018 79.4484C84.1963 79.3074 84.426 79.0851 84.426 79.0742C84.4206 79.0742 84.4125 79.0824 84.3936 79.0959C86.1203 77.4802 87.9307 76.0326 89.4952 74.2189C89.8816 73.7662 90.3248 73.3162 90.6598 72.8174C90.5869 72.934 90.5301 73.0207 90.4923 73.0858C90.6788 72.8093 91.1003 72.1613 91.2246 71.9797C91.9623 70.9143 92.6378 69.811 93.2701 68.6832C94.7887 65.9696 98.242 65.2918 100.866 66.6825C103.546 68.1058 104.281 71.7628 102.857 74.303C99.4067 80.4622 94.5617 85.6591 88.7792 89.6686C84.8475 92.3958 80.4809 94.4073 75.9062 95.695C74.1471 97.2809 74.7902 98.9156 76.0872 100C93.2863 95.8414 107.702 82.6337 113.909 64.6981C106.321 42.7802 86.4958 27.954 64.3518 28.0001ZM64.4545 82.0861C54.8808 82.0861 47.1203 74.3003 47.1203 64.6981C47.1203 55.0933 54.8808 47.3074 64.4545 47.3074C74.0282 47.3074 81.7887 55.0933 81.7887 64.6981C81.7887 74.3003 74.0282 82.0861 64.4545 82.0861Z" fill="black" fill-opacity="0.92"/>
<path d="M50.1926 83.5852C50.3548 83.6774 50.5277 83.7669 50.706 83.8455C50.8033 83.9187 50.7358 83.9078 50.1926 83.5852Z" fill="black" fill-opacity="0.92"/>
<path d="M59.0205 86.0251C57.7505 85.9058 60.1473 86.2338 59.0286 86.0251H59.0205Z" fill="black" fill-opacity="0.92"/>
<path d="M76.3953 83.8238C76.5709 83.7723 76.7492 83.7045 76.9276 83.6232C77.16 83.5663 77.2518 83.5744 76.3953 83.8238Z" fill="black" fill-opacity="0.92"/>
</svg>
