<svg viewBox="0 0 24 18" fill="none" xmlns="http://www.w3.org/2000/svg"><path fill-rule="evenodd" clip-rule="evenodd" d="M0 9.021C1.248 6.014 5.396 0 12 0s10.752 6.014 12 9.021c-1.062 2.56-4.224 7.295-9.212 8.65v-1.196a10.171 10.171 0 0 0 2.924-1.349c1.445-.97 5.206-4.13 2.756-5.176-.676-.288-1.154.259-1.852 1.058-.55.629-1.236 1.413-2.262 2.069a7.717 7.717 0 0 1-8.512.06c-.995-.623-1.798-1.37-2.464-1.989-.895-.833-1.544-1.436-2.08-1.198-2.435 1.081 1.757 4.306 3.215 5.255.877.571 1.832 1 2.829 1.277v1.224C4.278 16.398 1.072 11.602 0 9.02zm16.17 0a4.085 4.085 0 1 1-8.17 0 4.085 4.085 0 0 1 8.17 0z" fill="#000"/></svg>
