<svg viewBox="0 0 144 103" fill="none" xmlns="http://www.w3.org/2000/svg"><path d="M43.19 4a4 4 0 0 1 4-4h79.113a4 4 0 0 1 4 4v95a4 4 0 0 1-4 4H47.19a4 4 0 0 1-4-4V4Z" fill="#E1EBE5"/><path d="M43.19 4a4 4 0 0 1 4-4h79.113a4 4 0 0 1 4 4v95a4 4 0 0 1-4 4H47.19a4 4 0 0 1-4-4V4Z" fill="#3B5E49"/><circle cx="61.989" cy="19.064" r="6.884" fill="#F56565"/><rect x="56.693" y="35.216" width="60.105" height="6.09" rx="3.045" fill="url(#a)" fill-opacity=".6"/><rect x="56.693" y="48.19" width="60.105" height="6.09" rx="3.045" fill="url(#b)" fill-opacity=".6"/><rect x="56.693" y="61.165" width="60.105" height="6.09" rx="3.045" fill="url(#c)" fill-opacity=".6"/><rect x="56.693" y="74.139" width="30.715" height="6.09" rx="3.045" fill="url(#d)" fill-opacity=".6"/><path d="M93.987 49.013a4 4 0 0 1 4-4h41.043a4 4 0 0 1 4 4V103H93.987V49.013Z" fill="#FAFAFA"/><circle cx="104.571" cy="55.745" r="3.876" fill="#F6AD55"/><rect x="101.59" y="64.838" width="33.838" height="3.429" rx="1.714" fill="url(#e)" fill-opacity=".4"/><rect x="101.59" y="72.143" width="33.838" height="3.429" rx="1.714" fill="url(#f)" fill-opacity=".4"/><rect x="101.59" y="79.447" width="33.838" height="3.429" rx="1.714" fill="url(#g)" fill-opacity=".4"/><rect x="101.59" y="86.751" width="17.292" height="3.429" rx="1.714" fill="url(#h)" fill-opacity=".4"/><path d="M.97 23.29a4 4 0 0 1 4-4h41.043a4 4 0 0 1 4 4v49.987a4 4 0 0 1-4 4H4.97a4 4 0 0 1-4-4V23.29Z" fill="#D3F8E0"/><circle cx="11.553" cy="30.023" r="3.876" fill="#ECC94B"/><rect x="8.572" y="39.116" width="33.838" height="3.429" rx="1.714" fill="url(#i)" fill-opacity=".4"/><rect x="8.572" y="46.42" width="33.838" height="3.429" rx="1.714" fill="url(#j)" fill-opacity=".4"/><rect x="8.572" y="53.724" width="33.838" height="3.429" rx="1.714" fill="url(#k)" fill-opacity=".4"/><rect x="8.572" y="61.028" width="17.292" height="3.429" rx="1.714" fill="url(#l)" fill-opacity=".4"/><defs><linearGradient id="a" x1="56.656" y1="41.306" x2="116.709" y2="41.306" gradientUnits="userSpaceOnUse"><stop stop-color="#85AD95"/><stop offset="1" stop-color="#B5CEBF"/></linearGradient><linearGradient id="b" x1="56.656" y1="54.28" x2="116.709" y2="54.28" gradientUnits="userSpaceOnUse"><stop stop-color="#85AD95"/><stop offset="1" stop-color="#B5CEBF"/></linearGradient><linearGradient id="c" x1="56.656" y1="67.254" x2="116.709" y2="67.254" gradientUnits="userSpaceOnUse"><stop stop-color="#85AD95"/><stop offset="1" stop-color="#B5CEBF"/></linearGradient><linearGradient id="d" x1="56.674" y1="80.229" x2="87.362" y2="80.229" gradientUnits="userSpaceOnUse"><stop stop-color="#85AD95"/><stop offset="1" stop-color="#B5CEBF"/></linearGradient><linearGradient id="e" x1="101.569" y1="68.267" x2="135.377" y2="68.267" gradientUnits="userSpaceOnUse"><stop stop-color="#85AD95"/><stop offset="1" stop-color="#B5CEBF"/></linearGradient><linearGradient id="f" x1="101.569" y1="75.572" x2="135.377" y2="75.572" gradientUnits="userSpaceOnUse"><stop stop-color="#85AD95"/><stop offset="1" stop-color="#B5CEBF"/></linearGradient><linearGradient id="g" x1="101.569" y1="82.876" x2="135.377" y2="82.876" gradientUnits="userSpaceOnUse"><stop stop-color="#85AD95"/><stop offset="1" stop-color="#B5CEBF"/></linearGradient><linearGradient id="h" x1="101.579" y1="90.18" x2="118.856" y2="90.18" gradientUnits="userSpaceOnUse"><stop stop-color="#85AD95"/><stop offset="1" stop-color="#B5CEBF"/></linearGradient><linearGradient id="i" x1="8.551" y1="42.544" x2="42.36" y2="42.544" gradientUnits="userSpaceOnUse"><stop stop-color="#85AD95"/><stop offset="1" stop-color="#B5CEBF"/></linearGradient><linearGradient id="j" x1="8.551" y1="49.849" x2="42.36" y2="49.849" gradientUnits="userSpaceOnUse"><stop stop-color="#85AD95"/><stop offset="1" stop-color="#B5CEBF"/></linearGradient><linearGradient id="k" x1="8.551" y1="57.153" x2="42.36" y2="57.153" gradientUnits="userSpaceOnUse"><stop stop-color="#85AD95"/><stop offset="1" stop-color="#B5CEBF"/></linearGradient><linearGradient id="l" x1="8.561" y1="64.457" x2="25.838" y2="64.457" gradientUnits="userSpaceOnUse"><stop stop-color="#85AD95"/><stop offset="1" stop-color="#B5CEBF"/></linearGradient></defs></svg>
