<svg viewBox="0 0 391 283" fill="none" xmlns="http://www.w3.org/2000/svg"><path d="M116 4a4 4 0 0 1 4-4h231.35a4 4 0 0 1 4 4v279H116V4Z" fill="#E1EBE5"/><path d="M116 4a4 4 0 0 1 4-4h231.35a4 4 0 0 1 4 4v279H116V4Z" fill="#3B5E49"/><circle cx="167.653" cy="52.38" r="18.915" fill="#F56565"/><rect x="153.103" y="96.759" width="165.144" height="16.733" rx="4" fill="url(#a)" fill-opacity=".6"/><rect x="153.103" y="132.406" width="165.144" height="16.733" rx="4" fill="url(#b)" fill-opacity=".6"/><rect x="153.103" y="168.054" width="165.144" height="16.733" rx="4" fill="url(#c)" fill-opacity=".6"/><rect x="153.103" y="203.702" width="84.391" height="16.733" rx="4" fill="url(#d)" fill-opacity=".6"/><path d="M255.573 127.676a4 4 0 0 1 4-4h126.749a4 4 0 0 1 4 4V283H255.573V127.676Z" fill="#fff"/><circle cx="284.652" cy="153.165" r="10.649" fill="#F6AD55"/><rect x="276.461" y="178.148" width="92.973" height="9.42" rx="4" fill="url(#e)" fill-opacity=".4"/><rect x="276.461" y="198.218" width="92.973" height="9.42" rx="4" fill="url(#f)" fill-opacity=".4"/><rect x="276.461" y="218.287" width="92.973" height="9.42" rx="4" fill="url(#g)" fill-opacity=".4"/><rect x="276.461" y="238.356" width="47.511" height="9.42" rx="4" fill="url(#h)" fill-opacity=".4"/><path d="M0 57a4 4 0 0 1 4-4h126.75a4 4 0 0 1 4 4v151.324a4 4 0 0 1-4 4H4a4 4 0 0 1-4-4V57Z" fill="#D3F8E0"/><circle cx="29.08" cy="82.49" r="10.649" fill="#ECC94B"/><rect x="20.888" y="107.473" width="92.973" height="9.42" rx="4" fill="url(#i)" fill-opacity=".4"/><rect x="20.888" y="127.542" width="92.973" height="9.42" rx="4" fill="url(#j)" fill-opacity=".4"/><rect x="20.888" y="147.611" width="92.973" height="9.42" rx="4" fill="url(#k)" fill-opacity=".4"/><rect x="20.888" y="167.681" width="47.511" height="9.42" rx="4" fill="url(#l)" fill-opacity=".4"/><defs><linearGradient id="a" x1="153" y1="113.491" x2="318" y2="113.491" gradientUnits="userSpaceOnUse"><stop stop-color="#85AD95"/><stop offset="1" stop-color="#B5CEBF"/></linearGradient><linearGradient id="b" x1="153" y1="149.139" x2="318" y2="149.139" gradientUnits="userSpaceOnUse"><stop stop-color="#85AD95"/><stop offset="1" stop-color="#B5CEBF"/></linearGradient><linearGradient id="c" x1="153" y1="184.786" x2="318" y2="184.786" gradientUnits="userSpaceOnUse"><stop stop-color="#85AD95"/><stop offset="1" stop-color="#B5CEBF"/></linearGradient><linearGradient id="d" x1="153.05" y1="220.435" x2="237.368" y2="220.435" gradientUnits="userSpaceOnUse"><stop stop-color="#85AD95"/><stop offset="1" stop-color="#B5CEBF"/></linearGradient><linearGradient id="e" x1="276.403" y1="187.569" x2="369.295" y2="187.569" gradientUnits="userSpaceOnUse"><stop stop-color="#85AD95"/><stop offset="1" stop-color="#B5CEBF"/></linearGradient><linearGradient id="f" x1="276.403" y1="207.638" x2="369.295" y2="207.638" gradientUnits="userSpaceOnUse"><stop stop-color="#85AD95"/><stop offset="1" stop-color="#B5CEBF"/></linearGradient><linearGradient id="g" x1="276.403" y1="227.707" x2="369.295" y2="227.707" gradientUnits="userSpaceOnUse"><stop stop-color="#85AD95"/><stop offset="1" stop-color="#B5CEBF"/></linearGradient><linearGradient id="h" x1="276.431" y1="247.777" x2="323.9" y2="247.777" gradientUnits="userSpaceOnUse"><stop stop-color="#85AD95"/><stop offset="1" stop-color="#B5CEBF"/></linearGradient><linearGradient id="i" x1="20.83" y1="116.893" x2="113.722" y2="116.893" gradientUnits="userSpaceOnUse"><stop stop-color="#85AD95"/><stop offset="1" stop-color="#B5CEBF"/></linearGradient><linearGradient id="j" x1="20.83" y1="136.962" x2="113.722" y2="136.962" gradientUnits="userSpaceOnUse"><stop stop-color="#85AD95"/><stop offset="1" stop-color="#B5CEBF"/></linearGradient><linearGradient id="k" x1="20.83" y1="157.031" x2="113.722" y2="157.031" gradientUnits="userSpaceOnUse"><stop stop-color="#85AD95"/><stop offset="1" stop-color="#B5CEBF"/></linearGradient><linearGradient id="l" x1="20.858" y1="177.101" x2="68.328" y2="177.101" gradientUnits="userSpaceOnUse"><stop stop-color="#85AD95"/><stop offset="1" stop-color="#B5CEBF"/></linearGradient></defs></svg>
